<?xml version="1.0" encoding="UTF-8" standalone="no"?>
<!-- Created with Inkscape (http://www.inkscape.org/) -->

<svg
   width="1024"
   height="500"
   viewBox="0 0 270.93333 132.29167"
   version="1.1"
   id="svg1"
   xml:space="preserve"
   inkscape:export-filename="belleaire-app-feature-graphic.png"
   inkscape:export-xdpi="96"
   inkscape:export-ydpi="96"
   inkscape:version="1.3 (0e150ed6c4, 2023-07-21)"
   sodipodi:docname="belleaire-app-feature-graphic.svg"
   xmlns:inkscape="http://www.inkscape.org/namespaces/inkscape"
   xmlns:sodipodi="http://sodipodi.sourceforge.net/DTD/sodipodi-0.dtd"
   xmlns:xlink="http://www.w3.org/1999/xlink"
   xmlns="http://www.w3.org/2000/svg"
   xmlns:svg="http://www.w3.org/2000/svg"><sodipodi:namedview
     id="namedview1"
     pagecolor="#000000"
     bordercolor="#000000"
     borderopacity="0.25"
     inkscape:showpageshadow="2"
     inkscape:pageopacity="0.0"
     inkscape:pagecheckerboard="0"
     inkscape:deskcolor="#d1d1d1"
     inkscape:document-units="px"
     showguides="true"
     inkscape:export-bgcolor="#000000ff"
     inkscape:zoom="0.73890575"
     inkscape:cx="232.77664"
     inkscape:cy="144.80872"
     inkscape:window-width="2558"
     inkscape:window-height="1360"
     inkscape:window-x="-7"
     inkscape:window-y="0"
     inkscape:window-maximized="0"
     inkscape:current-layer="layer1" /><defs
     id="defs1"><inkscape:path-effect
       effect="bspline"
       id="path-effect7"
       is_visible="true"
       lpeversion="1.3"
       weight="33.333333"
       steps="2"
       helper_size="0"
       apply_no_weight="true"
       apply_with_weight="true"
       only_selected="false"
       uniform="false" /><inkscape:path-effect
       effect="bspline"
       id="path-effect6"
       is_visible="true"
       lpeversion="1.3"
       weight="33.333333"
       steps="2"
       helper_size="0"
       apply_no_weight="true"
       apply_with_weight="true"
       only_selected="false"
       uniform="false" /><inkscape:path-effect
       effect="bspline"
       id="path-effect5"
       is_visible="true"
       lpeversion="1.3"
       weight="33.333333"
       steps="2"
       helper_size="0"
       apply_no_weight="true"
       apply_with_weight="true"
       only_selected="false"
       uniform="false" /><inkscape:path-effect
       effect="bspline"
       id="path-effect3"
       is_visible="true"
       lpeversion="1.3"
       weight="33.333333"
       steps="2"
       helper_size="0"
       apply_no_weight="true"
       apply_with_weight="true"
       only_selected="false"
       uniform="false" /><linearGradient
       id="linearGradient2"
       inkscape:collect="always"><stop
         style="stop-color:#1e1e1e;stop-opacity:1;"
         offset="0"
         id="stop2" /><stop
         style="stop-color:#6e6e6e;stop-opacity:1;"
         offset="1"
         id="stop3" /></linearGradient><linearGradient
       inkscape:collect="always"
       xlink:href="#linearGradient2"
       id="linearGradient3"
       x1="174.70589"
       y1="194.70845"
       x2="50.892582"
       y2="70.895142"
       gradientUnits="userSpaceOnUse" /><inkscape:path-effect
       effect="bspline"
       id="path-effect16"
       is_visible="true"
       lpeversion="1.3"
       weight="33.333333"
       steps="2"
       helper_size="0"
       apply_no_weight="true"
       apply_with_weight="true"
       only_selected="false"
       uniform="false" /><inkscape:path-effect
       effect="bspline"
       id="path-effect15"
       is_visible="true"
       lpeversion="1.3"
       weight="33.333333"
       steps="2"
       helper_size="0"
       apply_no_weight="true"
       apply_with_weight="true"
       only_selected="false"
       uniform="false" /><inkscape:path-effect
       effect="bspline"
       id="path-effect14"
       is_visible="true"
       lpeversion="1.3"
       weight="33.333333"
       steps="2"
       helper_size="0"
       apply_no_weight="true"
       apply_with_weight="true"
       only_selected="false"
       uniform="false" /><inkscape:path-effect
       effect="bspline"
       id="path-effect13"
       is_visible="true"
       lpeversion="1.3"
       weight="33.333333"
       steps="2"
       helper_size="0"
       apply_no_weight="true"
       apply_with_weight="true"
       only_selected="false"
       uniform="false" /><inkscape:path-effect
       effect="bspline"
       id="path-effect12"
       is_visible="true"
       lpeversion="1.3"
       weight="33.333333"
       steps="2"
       helper_size="0"
       apply_no_weight="true"
       apply_with_weight="true"
       only_selected="false"
       uniform="false" /><inkscape:path-effect
       effect="bspline"
       id="path-effect11"
       is_visible="true"
       lpeversion="1.3"
       weight="33.333333"
       steps="2"
       helper_size="0"
       apply_no_weight="true"
       apply_with_weight="true"
       only_selected="false"
       uniform="false" /><inkscape:path-effect
       effect="bspline"
       id="path-effect10"
       is_visible="true"
       lpeversion="1.3"
       weight="33.333333"
       steps="2"
       helper_size="0"
       apply_no_weight="true"
       apply_with_weight="true"
       only_selected="false"
       uniform="false" /><inkscape:path-effect
       effect="bspline"
       id="path-effect9"
       is_visible="true"
       lpeversion="1.3"
       weight="33.333333"
       steps="2"
       helper_size="0"
       apply_no_weight="true"
       apply_with_weight="true"
       only_selected="false"
       uniform="false" /><inkscape:path-effect
       effect="bspline"
       id="path-effect8"
       is_visible="true"
       lpeversion="1.3"
       weight="33.333333"
       steps="2"
       helper_size="0"
       apply_no_weight="true"
       apply_with_weight="true"
       only_selected="false"
       uniform="false" /><inkscape:path-effect
       effect="bspline"
       id="path-effect7-3"
       is_visible="true"
       lpeversion="1.3"
       weight="33.333333"
       steps="2"
       helper_size="0"
       apply_no_weight="true"
       apply_with_weight="true"
       only_selected="false"
       uniform="false" /><inkscape:path-effect
       effect="bspline"
       id="path-effect6-2"
       is_visible="true"
       lpeversion="1.3"
       weight="33.333333"
       steps="2"
       helper_size="0"
       apply_no_weight="true"
       apply_with_weight="true"
       only_selected="false"
       uniform="false" /><inkscape:path-effect
       effect="bspline"
       id="path-effect5-9"
       is_visible="true"
       lpeversion="1.3"
       weight="33.333333"
       steps="2"
       helper_size="0"
       apply_no_weight="true"
       apply_with_weight="true"
       only_selected="false"
       uniform="false" /><inkscape:path-effect
       effect="bspline"
       id="path-effect4"
       is_visible="true"
       lpeversion="1.3"
       weight="33.333333"
       steps="2"
       helper_size="0"
       apply_no_weight="true"
       apply_with_weight="true"
       only_selected="false"
       uniform="false" /><inkscape:path-effect
       effect="bspline"
       id="path-effect3-0"
       is_visible="true"
       lpeversion="1.3"
       weight="33.333333"
       steps="2"
       helper_size="0"
       apply_no_weight="true"
       apply_with_weight="true"
       only_selected="false"
       uniform="false" /><inkscape:path-effect
       effect="bspline"
       id="path-effect2"
       is_visible="true"
       lpeversion="1.3"
       weight="33.333333"
       steps="2"
       helper_size="0"
       apply_no_weight="true"
       apply_with_weight="true"
       only_selected="false"
       uniform="false" /><inkscape:path-effect
       effect="bspline"
       id="path-effect1"
       is_visible="true"
       lpeversion="1.3"
       weight="33.333333"
       steps="2"
       helper_size="0"
       apply_no_weight="true"
       apply_with_weight="true"
       only_selected="false"
       uniform="false" /></defs><g
     inkscape:label="Layer 1"
     inkscape:groupmode="layer"
     id="layer1"><g
       inkscape:label="Layer 1"
       id="layer1-0"
       transform="matrix(0.42708368,0,0,0.42708368,-0.93910607,9.4007236)"><rect
         style="display:none;fill:url(#linearGradient3);stroke-width:0.264583"
         id="rect1"
         width="123.8133"
         height="123.8133"
         x="50.892582"
         y="70.895142" /><path
         id="rect2"
         style="display:none;fill:#808080;stroke-width:0.2151"
         d="m 125.07832,100.19411 a 20.944572,20.944572 0 0 0 -12.985,6.05515 20.944572,20.944572 0 0 0 -16.635402,-6.05473 20.944572,20.944572 0 0 0 -12.984583,6.05473 20.944572,20.944572 0 0 0 0,29.61999 l 29.619985,29.61999 29.61999,-29.61999 h 4.2e-4 a 20.944572,20.944572 0 0 0 0,-29.61999 20.944572,20.944572 0 0 0 -16.63541,-6.05515 z" /><path
         id="path3"
         style="display:none;fill:#ffffff;stroke-width:0.264583"
         d="m 97.187431,100.47783 c -0.555178,-2.8e-4 -1.107348,0.0219 -1.65468,0.0662 -2.189325,0.17685 -4.303705,0.7029 -6.467822,1.71204 -2.164117,1.00913 -4.377722,2.50118 -6.049243,3.98735 -1.671522,1.48617 -2.80093,2.96648 -3.733106,4.64623 -0.932175,1.67975 -1.667147,3.55907 -2.124935,5.46065 -0.457787,1.90158 -0.638116,3.82559 -0.568957,5.65702 0.06916,1.83143 0.387823,3.57 1.020093,5.40018 0.63227,1.83019 1.577972,3.75173 3.361552,6.09782 1.783579,2.3461 4.405081,5.11655 7.543725,7.88169 3.138644,2.76515 6.794032,5.52485 10.810193,9.54102 4.016159,4.01617 8.392839,9.28883 12.769249,14.56139 4.3764,-5.27257 8.75256,-10.54522 12.76873,-14.56139 4.01615,-4.01617 7.67206,-6.77587 10.81071,-9.54102 3.13864,-2.76514 5.75963,-5.5356 7.54321,-7.88169 1.78358,-2.34609 2.72928,-4.26763 3.36155,-6.09782 0.63227,-1.83018 0.95141,-3.56875 1.02061,-5.40018 0.0692,-1.83143 -0.11169,-3.75543 -0.56948,-5.65702 -0.45779,-1.90158 -1.19276,-3.7809 -2.12493,-5.46065 -0.93218,-1.67975 -2.06158,-3.16005 -3.73311,-4.64623 -1.67152,-1.48617 -3.88512,-2.97821 -6.04924,-3.98735 -2.16412,-1.00913 -4.27851,-1.53519 -6.46782,-1.71204 -2.18933,-0.17686 -4.45314,-0.004 -6.69572,0.56999 -2.24258,0.57433 -4.46349,1.55055 -6.10402,3.07113 -1.64042,1.52048 -2.701,3.58534 -3.76101,5.6503 -1.05997,-2.06489 -2.11961,-4.12988 -3.75998,-5.6503 -1.64053,-1.52058 -3.86143,-2.49681 -6.10402,-3.07113 -1.68193,-0.43074 -3.376017,-0.63528 -5.041549,-0.63614 z" /><path
         id="path5"
         style="display:none;fill:#ffffff;stroke-width:0.264583"
         d="m 98.443685,100.8592 c -3.136443,-0.0292 -6.765777,0.68623 -9.383924,1.58905 -2.618147,0.90283 -4.224961,1.99263 -5.685957,3.4308 -1.460997,1.43818 -2.775909,3.22468 -3.882451,5.9707 -1.106542,2.74602 -2.004574,6.45179 -1.636076,10.44019 0.368498,3.9884 2.003093,8.25912 4.572331,12.15791 2.569238,3.89879 6.072996,7.42521 9.227861,10.29653 3.154864,2.87132 5.960726,5.08739 9.308991,8.43566 3.34827,3.34828 7.23877,7.82878 11.12904,12.30933 3.89026,-4.48056 7.78025,-8.96106 11.12852,-12.30933 3.34826,-3.34827 6.15464,-5.56434 9.30951,-8.43566 3.15486,-2.87132 6.6581,-6.39774 9.22734,-10.29653 2.56924,-3.89879 4.20435,-8.16952 4.57285,-12.15791 0.36849,-3.98841 -0.52953,-7.69416 -1.63608,-10.44019 -1.10654,-2.74602 -2.42197,-4.53252 -3.88297,-5.9707 -1.46099,-1.43818 -3.06781,-2.52798 -5.68595,-3.4308 -2.61815,-0.90282 -6.24749,-1.61825 -9.38393,-1.58905 -3.13644,0.0292 -5.7798,0.80289 -7.97264,2.0836 -2.19272,1.28063 -3.93506,3.06808 -5.67717,4.85552 -1.74202,-1.78735 -3.48404,-3.57495 -5.67666,-4.85552 -2.19283,-1.2807 -4.83619,-2.05437 -7.972635,-2.0836 z" /><path
         id="path6"
         style="fill:#ffffff;stroke-width:0.264583"
         d="m 96.483598,100.24891 c -0.704955,0.0159 -1.406355,0.0681 -2.100131,0.15761 -1.387552,0.17904 -2.745028,0.50725 -3.960998,0.92501 -1.215971,0.41776 -2.29018,0.92503 -3.252515,1.45469 -0.962334,0.52966 -1.812519,1.08169 -2.677872,1.74563 -0.865354,0.66393 -1.745976,1.43944 -2.52181,2.25257 -0.775834,0.81314 -1.447167,1.6636 -2.021582,2.56626 -0.574416,0.90265 -1.051444,1.85779 -1.536341,2.96932 -0.484896,1.11154 -0.977467,2.37969 -1.328084,3.71502 -0.350617,1.33534 -0.559406,2.73746 -0.619084,4.16977 -0.05968,1.43232 0.0298,2.89484 0.223759,4.21525 0.19396,1.32041 0.492265,2.49872 0.910022,3.64009 0.417757,1.14137 0.954956,2.2453 1.589051,3.34191 0.634094,1.09661 1.365063,2.1859 2.24534,3.2303 0.880278,1.04439 1.909559,2.04408 5.139738,4.67 3.23018,2.62591 8.661198,6.87793 13.28136,11.51351 4.620159,4.63558 8.429589,9.65459 12.239049,14.67352 3.80945,-5.01893 7.61888,-10.03795 12.23904,-14.67352 4.62017,-4.63559 10.05067,-8.8876 13.28085,-11.51351 3.23017,-2.62592 4.25946,-3.62561 5.13973,-4.67 0.88028,-1.0444 1.61125,-2.13369 2.24535,-3.2303 0.63409,-1.09661 1.1713,-2.20054 1.58905,-3.34191 0.41776,-1.14137 0.71606,-2.31968 0.91002,-3.64009 0.194,-1.32041 0.28397,-2.78293 0.22427,-4.21525 -0.0597,-1.4323 -0.26898,-2.83443 -0.6196,-4.16977 -0.35061,-1.33533 -0.84267,-2.60348 -1.32756,-3.71502 -0.4849,-1.11153 -0.96244,-2.06667 -1.53686,-2.96932 -0.57442,-0.90265 -1.24574,-1.75313 -2.02158,-2.56626 -0.77583,-0.81313 -1.65594,-1.58864 -2.5213,-2.25257 -0.86535,-0.66394 -1.71605,-1.21597 -2.67839,-1.74563 -0.96232,-0.52965 -2.03654,-1.03693 -3.25251,-1.45469 -1.21598,-0.41776 -2.57345,-0.74598 -3.961,-0.92501 -1.38755,-0.1791 -2.80509,-0.20906 -4.22248,-0.0971 -1.41739,0.1119 -2.83455,0.36571 -4.08037,0.67903 -1.24581,0.31332 -2.31989,0.68596 -3.51348,1.26038 -1.1936,0.57441 -2.50679,1.35031 -3.72277,2.51406 -0.8496,0.81311 -1.57378,1.73207 -2.17093,2.52698 -0.59712,-0.79486 -1.3209,-1.71396 -2.17041,-2.52698 -1.21597,-1.16375 -2.52866,-1.93964 -3.72225,-2.51406 -1.1936,-0.57441 -2.26819,-0.94707 -3.514,-1.26038 -1.24581,-0.31332 -2.66298,-0.56713 -4.080371,-0.67903 -0.708696,-0.0559 -1.417396,-0.0763 -2.122351,-0.0605 z" /></g><path
       id="path1"
       style="fill:#ffffff;stroke:none;stroke-width:0.580485"
       d="m 197.107,50.487085 c -0.1731,0.01099 -0.35525,0.03707 -0.54874,0.07941 -0.774,0.169374 -1.71727,0.604282 -2.75732,1.148496 -1.04004,0.544212 -2.17762,1.197244 -3.43527,1.995408 -1.25774,0.798185 -2.63564,1.741434 -3.85708,2.684751 -1.22111,0.943029 -2.28627,1.886455 -2.81852,2.358223 -0.53129,0.470911 -0.53133,0.471219 -1.23241,1.0816 -0.70142,0.610734 -2.105,1.832156 -3.18134,2.811738 -1.07633,0.979582 -1.82609,1.716885 -2.44892,2.200631 -0.62282,0.483747 -1.11826,0.713542 -1.45688,0.78002 -0.33864,0.06648 -0.52047,-0.03027 -0.55666,-0.163231 -0.0362,-0.132954 0.0729,-0.301538 0.28456,-0.428568 0.21173,-0.127032 0.52607,-0.211718 0.63489,-0.344649 0.10884,-0.132955 0.0132,-0.31433 -0.21764,-0.417227 -0.22976,-0.102241 -0.59219,-0.126373 -1.07593,-0.10882 -0.48375,0.01755 -1.08842,0.07833 -1.61449,0.11452 -0.52607,0.0362 -0.97352,0.04805 -1.43308,0.132735 -0.45957,0.08469 -0.93192,0.241885 -1.38544,0.580501 -0.45353,0.33855 -0.88811,0.858606 -1.31744,1.378641 -0.42933,0.520013 -0.85259,1.040048 -1.19726,1.560061 -0.3446,0.520034 -0.61071,1.040815 -0.70746,1.439874 -0.0968,0.399061 -0.0246,0.676837 0.20513,0.912667 0.22978,0.235851 0.61677,0.429709 0.99771,0.48412 0.38093,0.05442 0.75621,-0.03159 1.0646,-0.02501 0.3084,0.0066 0.54943,0.103559 0.66439,0.260774 0.11426,0.157306 0.10288,0.374092 0.0176,0.555533 -0.0847,0.18144 -0.24223,0.326549 -0.68363,0.707486 -0.44143,0.380872 -1.16664,0.998077 -1.92854,1.46368 -0.7619,0.465603 -1.56079,0.780019 -2.32873,1.179101 -0.76793,0.399103 -1.50563,0.882455 -2.15868,1.438756 -0.65304,0.5563 -1.22068,1.185902 -1.68025,1.784525 -0.45955,0.598644 -0.81034,1.167034 -0.94329,1.687047 -0.13295,0.520035 -0.0489,0.991276 0.15072,1.329891 0.19965,0.338638 0.51396,0.543906 0.92515,0.622449 0.41117,0.07877 0.9191,0.03049 1.39681,-0.11452 0.47769,-0.145021 0.92511,-0.386202 1.56004,-0.845771 0.6349,-0.459548 1.45762,-1.136802 2.31627,-1.904732 0.85866,-0.767953 1.75354,-1.627306 2.6666,-2.510133 0.91306,-0.882829 1.84427,-1.789066 2.6122,-2.53282 0.76796,-0.743753 1.37184,-1.324999 1.91606,-1.820835 0.54421,-0.495834 1.02831,-0.906259 1.46368,-1.136033 0.43537,-0.229751 0.82236,-0.278107 1.48751,-0.308383 0.66513,-0.03005 1.60841,-0.04366 2.44891,-0.03049 0.84051,0.01316 1.57818,0.04804 2.28568,0.06122 0.70746,0.01316 1.38502,-3.07e-4 1.73577,0.132735 0.35059,0.133174 0.37459,0.411543 0.20514,0.792503 -0.16938,0.380938 -0.53173,0.863917 -0.84014,1.353696 -0.30839,0.489802 -0.56271,0.98601 -0.82877,1.572544 -0.26606,0.586556 -0.54463,1.263744 -0.66551,2.067962 -0.12085,0.804219 -0.0838,1.73503 0.15181,2.43646 0.23578,0.701432 0.67119,1.173792 1.07026,1.403588 0.39909,0.229927 0.76111,0.217422 1.37187,0.07833 0.61073,-0.139097 1.46971,-0.404368 2.58836,-0.972759 1.11865,-0.568411 2.49691,-1.439874 3.52487,-2.165484 1.02796,-0.725631 1.70517,-1.306109 2.14054,-1.795889 0.43537,-0.489802 0.62934,-0.888116 0.71994,-1.262998 0.0909,-0.374904 0.0787,-0.726333 -0.0362,-0.950095 -0.11504,-0.223827 -0.33261,-0.320538 -0.56236,-0.344671 -0.22975,-0.02413 -0.47127,0.02413 -1.13035,0.399081 -0.6591,0.374883 -1.73503,1.076337 -2.41831,1.414952 -0.68332,0.338528 -0.97393,0.314088 -1.13716,0.187145 -0.16323,-0.127032 -0.19965,-0.356387 0.0906,-1.039652 0.29023,-0.683288 0.90705,-1.82044 1.3605,-2.515816 0.45351,-0.695399 0.7434,-0.948516 1.3662,-1.117889 0.62282,-0.169374 1.57893,-0.254719 2.23803,-0.405883 0.65911,-0.151164 1.02191,-0.368849 1.74146,-1.106547 0.71955,-0.737697 1.79588,-1.995057 2.37638,-2.781132 0.58043,-0.786074 0.66434,-1.100117 0.55552,-1.384323 -0.10883,-0.284207 -0.41121,-0.538464 -0.96141,-0.611085 -0.55024,-0.07262 -1.34843,0.03576 -1.79589,-0.03071 -0.44757,-0.06648 -0.54393,-0.307989 -0.38662,-0.694982 0.15731,-0.386992 0.56877,-0.919094 1.28228,-1.959142 0.71352,-1.040047 1.729,-2.587602 2.56345,-3.978375 0.83447,-1.390753 1.48711,-2.625011 1.80155,-3.50786 0.3144,-0.882763 0.291,-1.414162 0.0975,-1.897909 -0.1935,-0.483746 -0.55704,-0.91984 -1.04079,-1.185902 -0.36281,-0.19965 -0.79365,-0.303886 -1.31289,-0.272117 z M 93.17625,50.719513 c -0.80862,-0.01099 -1.66898,-0.0018 -2.530563,0.043 -1.72311,0.08973 -3.45059,0.321086 -5.60984,0.680238 -2.159238,0.359174 -4.749688,0.845839 -6.045228,1.089565 -1.29551,0.243706 -1.29507,0.244496 -1.84235,0.462576 -0.54729,0.21808 -1.64231,0.654283 -2.73691,1.385443 -1.09459,0.731159 -2.18971,1.757122 -3.01919,2.800394 -0.8295,1.043273 -1.39319,2.103131 -1.63263,2.906955 -0.23941,0.803825 -0.15444,1.351086 0.0635,1.718794 0.21808,0.367685 0.56929,0.556388 1.59973,0.458034 1.03045,-0.09829 2.74041,-0.483352 4.33096,-0.91949 1.59058,-0.436116 3.06133,-0.923724 3.73689,-1.423991 0.67554,-0.500267 0.55571,-1.012711 1.53057,-1.521512 0.97487,-0.508803 3.04446,-1.013215 4.750458,-1.380924 1.706,-0.367707 3.04868,-0.599346 4.65635,-0.723326 1.607693,-0.123956 3.480993,-0.141292 4.682453,0.03401 1.20145,0.175297 1.73134,0.543905 2.06912,0.950094 0.33776,0.406191 0.48316,0.850863 0.2993,1.308347 -0.18385,0.457508 -0.69729,0.927037 -2.39903,1.649641 -1.70175,0.722581 -4.591853,1.697687 -6.182403,2.172286 -1.59057,0.474575 -1.88195,0.449367 -1.89906,0.175735 -0.0176,-0.273653 0.2405,-0.795399 0.76642,-1.385442 0.52594,-0.590067 1.32122,-1.249045 1.75734,-1.766403 0.43611,-0.517358 0.5123,-0.892964 0.13603,-1.07254 -0.37628,-0.179685 -1.20598,-0.162134 -2.32195,0.303841 -1.11598,0.466064 -2.51749,1.380134 -3.778828,2.376368 -1.26133,0.996256 -2.38215,2.073843 -4.06679,2.749363 -1.68464,0.675566 -3.93381,0.949087 -5.19943,1.175722 -1.26563,0.226637 -1.54786,0.406542 -1.70179,0.791363 -0.15401,0.38482 -0.17968,0.974799 0.0556,1.41947 0.23516,0.444673 0.73151,0.744522 1.2959,0.907007 0.56438,0.162572 1.19707,0.188022 1.53058,0.371876 0.3335,0.183853 0.36777,0.525893 0.18823,0.859397 -0.17968,0.333503 -0.57332,0.657772 -1.24033,1.277742 -0.66703,0.61999 -1.60683,1.535685 -2.20971,2.236919 -0.60285,0.701211 -0.86864,1.188008 -1.03966,1.671162 -0.17112,0.483154 -0.24741,0.96271 -0.25168,1.488625 -0.004,0.525914 0.0642,1.098078 0.20974,1.594067 0.14546,0.495966 0.36783,0.91565 0.73126,1.394526 0.36345,0.478876 0.86732,1.017822 1.37187,1.424012 0.50452,0.406191 1.00896,0.679448 1.62467,0.871859 0.61571,0.19241 1.34315,0.303095 2.15982,0.384338 0.81666,0.08117 1.72215,0.132954 2.73122,0.137123 1.00907,0.0044 2.12103,-0.03883 3.21989,-0.175737 1.09886,-0.136902 2.185578,-0.367707 3.096308,-0.654174 0.91071,-0.286487 1.64567,-0.627735 2.49653,-0.995444 0.85086,-0.367707 1.81683,-0.76137 2.778853,-1.257337 0.96204,-0.495988 1.92031,-1.094984 2.77545,-1.689307 0.85514,-0.594322 1.60791,-1.184453 2.11674,-1.945539 0.5088,-0.761086 0.77376,-1.693168 0.87639,-2.467067 0.10263,-0.773897 0.0421,-1.389171 -0.18034,-1.936456 -0.22233,-0.547305 -0.60672,-1.02651 -1.28228,-1.501108 -0.67556,-0.474598 -1.64185,-0.944083 -2.61675,-1.256196 -0.97485,-0.312135 -1.95829,-0.467139 -3.159773,-0.561216 -1.20149,-0.09412 -2.62076,-0.127252 -3.71532,-0.170032 -1.09459,-0.04278 -1.864688,-0.095 -2.326488,-0.167838 -0.4618,-0.07262 -0.61588,-0.165863 -0.67573,-0.358252 -0.0598,-0.192411 -0.0255,-0.483066 0.11555,-0.671199 0.14107,-0.188023 0.3895,-0.274311 1.539658,-0.385479 1.15016,-0.111237 3.20222,-0.24761 5.07924,-0.516985 1.877043,-0.269375 3.578893,-0.671989 5.105323,-1.133773 1.52643,-0.461764 2.87714,-0.983247 3.84345,-1.586125 0.96632,-0.602879 1.54859,-1.286385 2.12582,-1.914934 0.57721,-0.628525 1.14956,-1.201896 1.46595,-2.082706 0.3164,-0.880809 0.3761,-2.068993 0.12809,-3.095175 -0.24798,-1.026182 -0.80369,-1.889615 -1.53057,-2.556623 -0.72688,-0.667031 -1.62471,-1.13779 -2.52262,-1.428555 -0.8979,-0.290743 -1.79587,-0.401714 -3.10423,-0.482978 -0.6542,-0.04059 -1.41127,-0.07437 -2.2199,-0.08623 z m 37.88008,1.454618 c -0.10288,0.01099 -0.21456,0.03093 -0.33558,0.06122 -0.48374,0.120893 -1.12392,0.399081 -1.78907,0.834451 -0.66516,0.43537 -1.35448,1.027192 -2.04983,1.643958 -0.69538,0.616767 -1.39756,1.257733 -2.09293,1.995408 -0.69538,0.737698 -1.38395,1.572917 -2.04304,2.365047 -0.65909,0.792086 -1.28872,1.541521 -2.02035,2.418294 -0.73167,0.876774 -1.56575,1.880159 -1.98295,2.38205 -0.41724,0.50187 -0.41725,0.50187 -0.59865,0.852574 -0.18144,0.350726 -0.54381,1.052136 -0.94895,1.777745 -0.40514,0.725609 -0.85297,1.475768 -1.19158,2.279988 -0.33862,0.804218 -0.568,1.662451 -0.69499,2.509013 -0.0325,0.217422 -0.0582,0.434054 -0.0783,0.650773 -1.15861,0.717053 -2.37378,1.497665 -3.35028,2.106533 -2.05591,1.281931 -3.04831,1.79058 -4.07021,2.038497 -1.0219,0.247918 -2.07362,0.23539 -2.79925,0.06012 -0.72563,-0.175298 -1.12507,-0.513584 -1.246,-0.858255 -0.12085,-0.344671 0.0371,-0.695354 0.35145,-0.961416 0.31444,-0.266041 0.78608,-0.448227 1.43308,-0.714288 0.64701,-0.266062 1.46936,-0.616745 2.3401,-1.052115 0.87072,-0.43537 1.78907,-0.955405 2.69607,-1.596349 0.90703,-0.640965 1.8027,-1.40284 2.4376,-2.10425 0.63489,-0.701431 1.00939,-1.342003 1.2029,-1.892248 0.19351,-0.550268 0.20558,-1.009793 0.12706,-1.433074 -0.0786,-0.42328 -0.24791,-0.810625 -0.5442,-1.155297 -0.29628,-0.344671 -0.71993,-0.646626 -1.31855,-0.840133 -0.59864,-0.193287 -1.37262,-0.278084 -2.1224,-0.253951 -0.74981,0.02413 -1.47505,0.157307 -2.30947,0.380938 -0.83445,0.22374 -1.77738,0.538156 -2.61787,0.979582 -0.84051,0.441402 -1.57897,1.009397 -1.9478,1.293603 -0.36884,0.284185 -0.36809,0.284579 -1.06347,1.046477 -0.69537,0.761874 -2.08648,2.285252 -2.93304,3.66997 -0.84655,1.384719 -1.14923,2.630713 -1.13715,3.967034 0.0103,1.336342 0.33859,2.76301 0.97956,3.9058 0.64096,1.142857 1.59709,2.001486 2.56456,2.4308 0.9675,0.429292 1.94705,0.42927 2.90244,0.308384 0.95538,-0.120893 1.88581,-0.362794 2.76864,-0.725609 0.88283,-0.362794 1.71726,-0.846541 2.50334,-1.41493 0.78607,-0.56839 1.52414,-1.220677 3.04189,-2.532841 0.60964,-0.527077 1.34979,-1.169975 2.09633,-1.832156 0.0393,0.594762 0.10948,1.189369 0.24942,1.741458 0.21172,0.834451 0.57442,1.571402 1.08841,2.115614 0.51397,0.544212 1.17949,0.894808 1.91719,1.052115 0.73769,0.157307 1.54834,0.120893 2.46138,-0.14502 0.91308,-0.266062 1.92891,-0.761898 2.73919,-1.287966 0.81026,-0.526068 1.41492,-1.081623 2.848,-2.351422 0.63068,-0.558825 1.42276,-1.260804 2.20629,-1.973864 -0.0103,0.69066 0.0176,1.336298 0.11555,1.914912 0.14547,0.855163 0.43628,1.573267 0.88094,2.146221 0.44468,0.572953 1.04337,1.000863 1.79588,1.240334 0.75253,0.239274 1.65815,0.291073 2.35936,0.24829 0.70122,-0.04278 1.19738,-0.179684 3.38656,-1.308369 1.34193,-0.691931 3.29346,-1.750474 5.06675,-2.766365 0.004,0.188461 0.0103,0.376044 0.0295,0.560074 0.0856,0.906457 0.34217,1.743915 0.78684,2.513556 0.44467,0.769619 1.07798,1.471051 1.82195,1.872963 0.74397,0.401869 1.59875,0.504107 2.47953,0.478437 0.88081,-0.02567 1.78696,-0.179466 2.96708,-0.632628 1.18007,-0.453229 2.63398,-1.205209 3.89105,-2.009033 1.25707,-0.803845 2.31781,-1.659162 3.14731,-2.377486 0.82948,-0.718326 1.42758,-1.300428 1.6927,-1.80495 0.26501,-0.504525 0.19701,-0.931864 -0.0509,-1.248277 -0.24796,-0.316348 -0.67594,-0.521549 -1.14623,-0.427427 -0.4703,0.09412 -0.98288,0.487958 -1.80382,1.018129 -0.82092,0.530193 -1.9502,1.197135 -3.13032,1.718772 -1.18009,0.521658 -2.41092,0.897111 -3.31738,0.939893 -0.90645,0.04278 -1.48825,-0.247853 -1.85595,-0.632651 -0.36773,-0.384777 -0.52135,-0.863543 -0.35034,-1.231252 0.17091,-0.367707 0.6669,-0.6244 1.32538,-0.88094 0.65845,-0.256541 1.47902,-0.513081 2.47952,-1.009047 1.00051,-0.495989 2.18094,-1.231165 3.25844,-2.052101 1.07747,-0.820936 2.05239,-1.727349 2.5997,-2.616716 0.54733,-0.889345 0.66635,-1.761751 0.49545,-2.488611 -0.17114,-0.726881 -0.6324,-1.308083 -1.28229,-1.6587 -0.64991,-0.350573 -1.48816,-0.469903 -2.47159,-0.384339 -0.98341,0.08557 -2.1119,0.375256 -3.26636,0.879801 -1.15445,0.504524 -2.33391,1.223572 -2.92397,1.582724 -0.59003,0.359152 -0.59094,0.35913 -0.95009,0.709747 -0.35915,0.350595 -1.07724,1.051083 -1.75279,1.837816 -0.67557,0.786732 -1.30769,1.659578 -1.72673,2.514675 -0.37161,0.758386 -0.57159,1.505869 -0.71426,2.297012 -1.42992,0.393575 -2.96446,0.865298 -4.09174,1.234674 -2.0096,0.658451 -2.71175,0.983904 -3.2505,0.924008 -0.53873,-0.0599 -0.91482,-0.505226 -1.13715,-1.189325 -0.22236,-0.68412 -0.29021,-1.60734 0.10314,-2.368425 0.39337,-0.761086 1.24888,-1.359182 2.24938,-2.19723 1.00052,-0.838028 2.14575,-1.916119 3.33439,-3.207397 1.18866,-1.291257 2.42066,-2.795744 3.41262,-4.232328 0.99198,-1.436649 1.74411,-2.805068 2.18023,-4.190401 0.43613,-1.385289 0.55523,-2.788459 0.51247,-3.694917 -0.0428,-0.906457 -0.2479,-1.316156 -0.52153,-1.538515 -0.27365,-0.222468 -0.61545,-0.257177 -0.94896,-0.197237 -0.33353,0.0599 -0.65873,0.213911 -1.25735,0.564616 -0.5986,0.350617 -1.47069,0.898252 -2.2403,1.445557 -0.76965,0.547285 -1.43639,1.09402 -2.25733,2.009011 -0.82094,0.915014 -1.79562,2.197844 -2.74484,3.497658 -0.94919,1.299834 -1.87263,2.61698 -2.33439,3.27543 -0.4618,0.658452 -0.46158,0.658168 -0.74377,1.06008 -0.28217,0.401911 -0.84655,1.205976 -1.51356,2.172285 -0.66701,0.966307 -1.43676,2.094926 -1.88999,3.249344 -0.23262,0.592524 -0.38013,1.191322 -0.47958,1.781147 -0.12085,0.07855 -0.25224,0.162133 -0.36279,0.234687 -0.96749,0.634911 -1.47465,0.986362 -2.09747,1.367322 -0.62283,0.380937 -1.36088,0.791734 -2.08044,1.257337 -0.71958,0.465603 -1.42136,0.985636 -1.98976,1.233533 -0.56839,0.247917 -1.00301,0.223652 -1.42627,0.0362 -0.42327,-0.187365 -0.83445,-0.537784 -1.08842,-1.003387 -0.25395,-0.465602 -0.35109,-1.046453 -0.30271,-1.590665 0.0482,-0.544213 0.24224,-1.052137 0.79251,-1.56006 0.55024,-0.507947 1.45725,-1.016222 2.26753,-1.590667 0.81025,-0.574445 1.523,-1.215367 2.55096,-2.213093 1.02794,-0.997704 2.37106,-2.352169 3.36273,-3.501058 0.99166,-1.14889 1.63184,-2.091394 2.18814,-3.040744 0.55633,-0.949349 1.02795,-1.90471 1.30612,-2.757304 0.27813,-0.852595 0.36355,-1.602383 0.40587,-2.376368 0.0424,-0.773986 0.0419,-1.572522 -0.0669,-2.171144 -0.10884,-0.598644 -0.32653,-0.99777 -0.59862,-1.215411 -0.20403,-0.163231 -0.43849,-0.224486 -0.74715,-0.193947 z m 61.43399,4.124627 c 0.17947,0.02193 0.0553,0.360927 -0.37755,1.08726 -0.76964,1.291257 -2.51405,3.805141 -3.53166,5.173362 -1.01763,1.368221 -1.30894,1.591061 -2.30947,1.821954 -1.00054,0.230892 -2.7113,0.469507 -3.63484,0.452372 -0.92356,-0.01755 -1.05957,-0.290721 -0.34125,-1.009047 0.71832,-0.718324 2.29141,-1.881014 3.07814,-2.462523 0.78674,-0.581488 0.78715,-0.581642 1.83896,-1.385466 1.05183,-0.803823 3.15507,-2.411668 4.30943,-3.181332 0.50505,-0.336729 0.82868,-0.512904 0.96824,-0.49658 z m -63.8693,1.154154 c 0.13887,-0.0044 0.24991,0.05376 0.31406,0.155333 0.10263,0.162572 0.0852,0.436335 -0.23129,1.06914 -0.3164,0.632826 -0.93194,1.625221 -1.73579,2.7369 -0.80384,1.111703 -1.7963,2.34302 -2.6258,3.326441 -0.82949,0.983422 -1.49611,1.718442 -1.975,2.180228 -0.4789,0.461807 -0.76972,0.649829 -0.99205,0.615626 -0.22233,-0.03423 -0.37595,-0.290897 -0.25623,-0.675719 0.11982,-0.384821 0.51306,-0.897615 0.70975,-1.154155 0.19679,-0.256541 0.19657,-0.257045 0.53853,-0.718807 0.34206,-0.461786 1.02622,-1.385422 1.70177,-2.300414 0.67556,-0.915013 1.3426,-1.820681 1.90699,-2.547562 0.5644,-0.72686 1.02673,-1.274713 1.41152,-1.710829 0.38482,-0.436137 0.6918,-0.761151 0.95691,-0.897945 0.0994,-0.05134 0.19329,-0.07569 0.27663,-0.07833 z m 13.50877,0.01099 c 0.066,-0.0022 0.11362,0.02259 0.15424,0.05902 0.16257,0.14546 0.21281,0.470165 -0.31745,1.436474 -0.53022,0.96633 -1.64174,2.573429 -2.83894,4.121226 -1.1972,1.547817 -2.47913,3.035586 -3.25732,3.75389 -0.77817,0.718303 -1.05224,0.666986 -1.1292,0.410425 -0.077,-0.256563 0.0432,-0.717822 0.23129,-1.094086 0.18802,-0.376264 0.44428,-0.667534 0.57254,-0.812907 0.12835,-0.145459 0.12874,-0.14524 1.11222,-1.436474 0.9834,-1.291257 2.94998,-3.872934 4.0702,-5.181303 0.84017,-0.98125 1.20444,-1.246565 1.40246,-1.256198 z m 66.10053,0.479579 c -0.18999,-0.0022 -0.38094,0.01316 -0.56461,0.0419 -0.48978,0.07855 -0.9255,0.259633 -1.35485,0.531729 -0.42933,0.272116 -0.85181,0.63491 -1.06347,0.816306 -0.21172,0.181441 -0.21238,0.181441 -0.29704,0.38096 -0.0847,0.199431 -0.2532,0.598228 -0.356,0.967098 -0.10289,0.368849 -0.13953,0.707838 -0.067,1.02831 0.0726,0.320472 0.25435,0.622427 0.59297,0.82199 0.33858,0.199651 0.83445,0.296273 1.28794,0.326506 0.45349,0.03027 0.86468,-0.0044 1.26982,-0.192849 0.40511,-0.187365 0.80383,-0.526815 1.2029,-0.968218 0.3991,-0.441404 0.79817,-0.98487 1.01586,-1.444417 0.21764,-0.459547 0.2536,-0.835219 0.11452,-1.204046 -0.13911,-0.368848 -0.45274,-0.731642 -0.88208,-0.925149 -0.26832,-0.120893 -0.58232,-0.175298 -0.89907,-0.180344 z m 6.85699,4.599661 c -0.3251,-0.0088 -0.71427,0.01536 -1.07254,0.115619 -0.4777,0.132954 -0.90058,0.399849 -1.38432,0.750554 -0.48373,0.350727 -1.02869,0.785328 -1.51243,1.26302 -0.48375,0.477691 -0.90701,0.998077 -1.21539,1.481823 -0.30839,0.483725 -0.50113,0.931184 -0.59182,1.36052 -0.0906,0.429314 -0.079,0.840857 0.11452,1.17344 0.1935,0.332582 0.56876,0.585765 0.73807,0.809507 0.16938,0.223718 0.13229,0.41797 0.0658,0.550991 -0.0664,0.132954 -0.16256,0.205574 -0.41042,0.43537 -0.24794,0.229795 -0.64739,0.616393 -1.11903,1.02153 -0.47164,0.405115 -1.01622,0.828002 -1.57252,1.202906 -0.55631,0.374904 -1.12438,0.702176 -1.74712,1.022648 -0.62282,0.320495 -1.30006,0.634165 -1.95914,0.936494 -0.65911,0.302349 -1.29967,0.592588 -1.87413,0.671197 -0.57437,0.07855 -1.08234,-0.05442 -1.48748,-0.290259 -0.40514,-0.235808 -0.70821,-0.573657 -0.8594,-0.954615 -0.15116,-0.38096 -0.1505,-0.804592 -0.0658,-1.173441 0.0847,-0.368848 0.25395,-0.682893 0.58048,-0.967098 0.32655,-0.284206 0.81025,-0.538926 1.41494,-0.96824 0.60468,-0.429314 1.3299,-1.033224 1.89225,-1.589525 0.56234,-0.5563 0.96179,-1.064993 1.39112,-1.621294 0.42926,-0.556212 0.88887,-1.160956 1.14283,-1.723313 0.25396,-0.562355 0.30197,-1.0816 0.13273,-1.462538 -0.16915,-0.38096 -0.55627,-0.622823 -0.99771,-0.743753 -0.4414,-0.120893 -0.9376,-0.121771 -1.48182,0.01099 -0.54419,0.132953 -1.1364,0.399827 -1.8741,0.841252 -0.7377,0.441403 -1.6209,1.057796 -2.06231,1.36618 -0.44142,0.308383 -0.44142,0.308383 -0.94329,0.870718 -0.50189,0.562356 -1.50525,1.687398 -2.21878,2.679089 -0.71351,0.991672 -1.13717,1.849532 -1.37298,2.823059 -0.23581,0.973527 -0.2842,2.062675 -0.0906,3.01808 0.19351,0.955382 0.62885,1.77735 1.10654,2.49087 0.47769,0.71352 0.99847,1.318549 1.62128,1.66322 0.62281,0.344672 1.34803,0.429315 1.94667,0.43537 0.59863,0.0066 1.07027,-0.06691 1.66889,-0.284579 0.59864,-0.21764 1.32386,-0.580851 2.20062,-1.155296 0.87678,-0.574444 1.90471,-1.360147 2.975,-2.218776 1.07027,-0.858628 2.18369,-1.789438 3.27202,-2.799253 1.08844,-1.009814 2.15189,-2.098196 3.00448,-2.97499 0.85259,-0.876795 1.49391,-1.542289 2.18929,-1.917193 0.69538,-0.374904 1.44517,-0.459921 1.941,-0.429688 0.49583,0.03027 0.73734,0.176175 0.80384,0.405883 0.0664,0.229774 -0.0419,0.543444 -0.38661,0.954615 -0.34468,0.411193 -0.92516,0.91949 -1.45122,1.645097 -0.52607,0.72561 -0.99731,1.668509 -1.32989,2.581569 -0.33259,0.913062 -0.52607,1.796636 -0.39908,2.600854 0.12706,0.80422 0.57405,1.529828 1.09408,1.995408 0.52001,0.465603 1.11221,0.670827 1.83781,0.658716 0.72561,-0.01316 1.58462,-0.242235 3.47725,-1.264139 1.29477,-0.699105 3.05441,-1.761554 4.54638,-2.714216 0.0522,0.792678 0.20821,1.495273 0.55216,2.19043 0.41046,0.829493 1.0866,1.650297 1.8605,2.129195 0.77389,0.478898 1.64611,0.614946 2.61671,0.62811 0.97058,0.01316 2.03929,-0.09785 3.15524,-0.478459 1.11597,-0.380543 2.27879,-1.029999 3.39902,-1.786807 1.12025,-0.756785 2.1975,-1.621381 2.96705,-2.352541 0.76965,-0.731137 1.23183,-1.328839 1.39001,-1.871844 0.15818,-0.543028 0.0132,-1.03114 -0.26532,-1.189324 -0.27786,-0.158186 -0.68886,0.01316 -1.16776,0.277777 -0.47889,0.265096 -1.02581,0.624993 -1.67571,1.022649 -0.64991,0.397634 -1.40257,0.833311 -2.13373,1.188185 -0.73114,0.354894 -1.4411,0.629271 -2.22784,0.778899 -0.78672,0.150287 -1.65016,0.175518 -2.25731,0.02193 -0.60717,-0.154017 -0.95739,-0.487235 -1.15419,-0.837852 -0.19657,-0.350595 -0.23995,-0.718128 -0.0862,-1.043076 0.15378,-0.324947 0.50527,-0.607947 1.22787,-0.967098 0.72258,-0.359151 1.81707,-0.795354 2.87746,-1.291344 1.06039,-0.495989 2.08617,-1.05128 2.98408,-1.654159 0.8979,-0.602879 1.66713,-1.253016 2.23577,-2.022635 0.56867,-0.769621 0.93729,-1.659228 1.08275,-2.266385 0.14545,-0.607134 0.0682,-0.931401 -0.13273,-1.277741 -0.20097,-0.346339 -0.52638,-0.714902 -0.92401,-1.005647 -0.39766,-0.290765 -0.86818,-0.503777 -1.424,-0.623567 -0.55582,-0.119794 -1.19717,-0.146118 -1.81289,-0.06911 -0.61571,0.07701 -1.20556,0.25654 -1.79134,0.504524 -0.5858,0.248005 -1.16761,0.565231 -1.95007,1.06122 -0.78244,0.495988 -1.76561,1.171268 -2.25731,1.509028 -0.4917,0.337783 -0.49156,0.337717 -0.93196,0.765298 -0.4404,0.427559 -1.32122,1.281801 -2.05664,2.171144 -0.73542,0.889345 -1.32511,1.813265 -1.6757,2.848004 -0.15402,0.454348 -0.25997,0.929977 -0.33105,1.404728 -1.27935,0.408362 -2.70524,0.882543 -3.6836,1.190443 -1.51776,0.477714 -1.9172,0.537784 -2.15302,0.404765 -0.2358,-0.132955 -0.30838,-0.45878 -0.29025,-0.845795 0.0176,-0.386992 0.12745,-0.834802 0.46598,-1.427391 0.33863,-0.592589 0.90701,-1.330287 1.45122,-1.977286 0.54422,-0.647 1.06346,-1.203673 1.53511,-1.681365 0.47167,-0.477713 0.89493,-0.876026 1.12469,-1.281163 0.22978,-0.40505 0.2668,-0.816286 0.26078,-1.324232 -0.006,-0.507924 -0.0548,-1.112974 -0.19394,-1.608788 -0.1391,-0.495836 -0.36923,-0.882829 -0.6111,-1.07028 -0.24187,-0.187365 -0.49543,-0.17486 -0.73128,-0.09631 -0.23585,0.07855 -0.45391,0.223367 -0.81065,0.2959 -0.35671,0.07261 -0.85182,0.07261 -1.40812,0.09061 -0.55631,0.01755 -1.17381,0.05484 -1.76641,0.08513 -0.59258,0.03027 -1.16058,0.05376 -1.47502,-0.09741 -0.31444,-0.151165 -0.37526,-0.477319 -0.50224,-0.67686 -0.12706,-0.19965 -0.31972,-0.272095 -0.68254,-0.308384 -0.0906,-0.0088 -0.19197,-0.01535 -0.30045,-0.01975 z m 20.46892,3.608783 c 0.12266,6.14e-4 0.19415,0.04826 0.22788,0.127032 0.077,0.179686 -0.0425,0.521614 -0.55553,1.009047 -0.51308,0.487433 -1.41988,1.120698 -2.24938,1.727855 -0.82947,0.607156 -1.5817,1.188469 -2.06912,1.436474 -0.48746,0.247984 -0.70964,0.162353 -0.72674,-0.07701 -0.0176,-0.239426 0.17091,-0.633199 0.53853,-1.035111 0.36772,-0.401933 0.91456,-0.811744 1.18819,-1.016989 0.27365,-0.205134 0.27384,-0.205574 0.76981,-0.547612 0.49599,-0.342039 1.48845,-1.025897 2.12128,-1.359379 0.35595,-0.187584 0.5975,-0.264986 0.75508,-0.264152 z m -82.12738,0.03181 c 0.11853,7.46e-4 0.18254,0.05068 0.21994,0.12923 0.0856,0.179686 0.0331,0.504809 -0.50565,1.052114 -0.53876,0.547284 -1.564,1.317583 -2.47045,1.993149 -0.90646,0.675563 -1.69351,1.256723 -2.15529,1.470503 -0.4618,0.213691 -0.59895,0.05968 -0.64171,-0.154236 -0.0428,-0.213693 0.009,-0.487038 0.30838,-0.871859 0.2993,-0.38482 0.84652,-0.881248 1.12015,-1.129232 0.27366,-0.247983 0.27389,-0.248356 0.86394,-0.641711 0.59004,-0.393377 1.77039,-1.179254 2.47159,-1.55552 0.39442,-0.211716 0.63684,-0.293464 0.7891,-0.29252 z m -43.9752,0.554415 c 0.17091,0.0022 0.29214,0.04914 0.36396,0.136025 0.11491,0.139097 0.10288,0.380191 -0.0906,0.664397 -0.19351,0.284207 -0.56876,0.611085 -1.11903,1.064598 -0.55028,0.453514 -1.27512,1.033992 -1.87979,1.56006 -0.60465,0.526069 -1.08916,0.997354 -1.47615,1.257338 -0.38701,0.260007 -0.67648,0.308383 -0.84579,0.217642 -0.16937,-0.09083 -0.21764,-0.3201 -0.16323,-0.586162 0.0544,-0.266061 0.21172,-0.568762 0.29025,-0.719926 0.0786,-0.151164 0.0786,-0.150726 0.34466,-0.422908 0.26607,-0.272096 0.79742,-0.81668 1.31743,-1.300428 0.52001,-0.483724 1.02871,-0.906632 1.53058,-1.221049 0.50186,-0.314438 0.99732,-0.519639 1.36618,-0.604304 0.13843,-0.03181 0.25905,-0.04673 0.36167,-0.04542 z m -27.366711,2.745984 c 0.91748,0.01755 2.25504,0.172225 3.437568,0.307243 1.35143,0.154235 2.5003,0.281155 3.33778,0.462574 0.83748,0.181441 1.36391,0.416809 1.6451,0.758475 0.28115,0.341643 0.31745,0.789848 0.14502,1.131492 -0.17245,0.341643 -0.55365,0.577494 -1.45462,1.015869 -0.90097,0.438398 -2.32116,1.078551 -3.59403,1.489744 -1.272858,0.411171 -2.397898,0.592962 -3.459098,0.529469 -1.06121,-0.0634 -2.0593,-0.371855 -2.7607,-0.807225 -0.70143,-0.43537 -1.1062,-0.998099 -1.03968,-1.554399 0.0664,-0.556301 0.60468,-1.106173 1.01586,-1.574782 0.41118,-0.46863 0.69499,-0.855602 0.95802,-1.17004 0.26304,-0.314417 0.50565,-0.555928 1.40359,-0.586161 0.11232,-0.0044 0.23402,-0.0044 0.36508,-0.0022 z" /></g></svg>
