<?xml version="1.0" encoding="UTF-8" standalone="no"?>
<!-- Created with Inkscape (http://www.inkscape.org/) -->

<svg
   width="78.316666mm"
   height="14.816667mm"
   viewBox="0 0 78.316666 14.816667"
   version="1.1"
   id="svg1"
   xml:space="preserve"
   inkscape:version="1.3 (0e150ed6c4, 2023-07-21)"
   sodipodi:docname="belleaire-logo-1.svg"
   xmlns:inkscape="http://www.inkscape.org/namespaces/inkscape"
   xmlns:sodipodi="http://sodipodi.sourceforge.net/DTD/sodipodi-0.dtd"
   xmlns="http://www.w3.org/2000/svg"
   xmlns:svg="http://www.w3.org/2000/svg"><sodipodi:namedview
     id="namedview1"
     pagecolor="#000000"
     bordercolor="#000000"
     borderopacity="0.25"
     inkscape:showpageshadow="2"
     inkscape:pageopacity="0.0"
     inkscape:pagecheckerboard="0"
     inkscape:deskcolor="#d1d1d1"
     inkscape:document-units="mm"
     inkscape:zoom="2.8284271"
     inkscape:cx="19.091883"
     inkscape:cy="-6.7175144"
     inkscape:window-width="2572"
     inkscape:window-height="1360"
     inkscape:window-x="-7"
     inkscape:window-y="0"
     inkscape:window-maximized="0"
     inkscape:current-layer="layer1" /><defs
     id="defs1"><inkscape:path-effect
       effect="bspline"
       id="path-effect16"
       is_visible="true"
       lpeversion="1.3"
       weight="33.333333"
       steps="2"
       helper_size="0"
       apply_no_weight="true"
       apply_with_weight="true"
       only_selected="false"
       uniform="false" /><inkscape:path-effect
       effect="bspline"
       id="path-effect15"
       is_visible="true"
       lpeversion="1.3"
       weight="33.333333"
       steps="2"
       helper_size="0"
       apply_no_weight="true"
       apply_with_weight="true"
       only_selected="false"
       uniform="false" /><inkscape:path-effect
       effect="bspline"
       id="path-effect14"
       is_visible="true"
       lpeversion="1.3"
       weight="33.333333"
       steps="2"
       helper_size="0"
       apply_no_weight="true"
       apply_with_weight="true"
       only_selected="false"
       uniform="false" /><inkscape:path-effect
       effect="bspline"
       id="path-effect13"
       is_visible="true"
       lpeversion="1.3"
       weight="33.333333"
       steps="2"
       helper_size="0"
       apply_no_weight="true"
       apply_with_weight="true"
       only_selected="false"
       uniform="false" /><inkscape:path-effect
       effect="bspline"
       id="path-effect12"
       is_visible="true"
       lpeversion="1.3"
       weight="33.333333"
       steps="2"
       helper_size="0"
       apply_no_weight="true"
       apply_with_weight="true"
       only_selected="false"
       uniform="false" /><inkscape:path-effect
       effect="bspline"
       id="path-effect11"
       is_visible="true"
       lpeversion="1.3"
       weight="33.333333"
       steps="2"
       helper_size="0"
       apply_no_weight="true"
       apply_with_weight="true"
       only_selected="false"
       uniform="false" /><inkscape:path-effect
       effect="bspline"
       id="path-effect10"
       is_visible="true"
       lpeversion="1.3"
       weight="33.333333"
       steps="2"
       helper_size="0"
       apply_no_weight="true"
       apply_with_weight="true"
       only_selected="false"
       uniform="false" /><inkscape:path-effect
       effect="bspline"
       id="path-effect9"
       is_visible="true"
       lpeversion="1.3"
       weight="33.333333"
       steps="2"
       helper_size="0"
       apply_no_weight="true"
       apply_with_weight="true"
       only_selected="false"
       uniform="false" /><inkscape:path-effect
       effect="bspline"
       id="path-effect8"
       is_visible="true"
       lpeversion="1.3"
       weight="33.333333"
       steps="2"
       helper_size="0"
       apply_no_weight="true"
       apply_with_weight="true"
       only_selected="false"
       uniform="false" /><inkscape:path-effect
       effect="bspline"
       id="path-effect7"
       is_visible="true"
       lpeversion="1.3"
       weight="33.333333"
       steps="2"
       helper_size="0"
       apply_no_weight="true"
       apply_with_weight="true"
       only_selected="false"
       uniform="false" /><inkscape:path-effect
       effect="bspline"
       id="path-effect6"
       is_visible="true"
       lpeversion="1.3"
       weight="33.333333"
       steps="2"
       helper_size="0"
       apply_no_weight="true"
       apply_with_weight="true"
       only_selected="false"
       uniform="false" /><inkscape:path-effect
       effect="bspline"
       id="path-effect5"
       is_visible="true"
       lpeversion="1.3"
       weight="33.333333"
       steps="2"
       helper_size="0"
       apply_no_weight="true"
       apply_with_weight="true"
       only_selected="false"
       uniform="false" /><inkscape:path-effect
       effect="bspline"
       id="path-effect4"
       is_visible="true"
       lpeversion="1.3"
       weight="33.333333"
       steps="2"
       helper_size="0"
       apply_no_weight="true"
       apply_with_weight="true"
       only_selected="false"
       uniform="false" /><inkscape:path-effect
       effect="bspline"
       id="path-effect3"
       is_visible="true"
       lpeversion="1.3"
       weight="33.333333"
       steps="2"
       helper_size="0"
       apply_no_weight="true"
       apply_with_weight="true"
       only_selected="false"
       uniform="false" /><inkscape:path-effect
       effect="bspline"
       id="path-effect2"
       is_visible="true"
       lpeversion="1.3"
       weight="33.333333"
       steps="2"
       helper_size="0"
       apply_no_weight="true"
       apply_with_weight="true"
       only_selected="false"
       uniform="false" /><inkscape:path-effect
       effect="bspline"
       id="path-effect1"
       is_visible="true"
       lpeversion="1.3"
       weight="33.333333"
       steps="2"
       helper_size="0"
       apply_no_weight="true"
       apply_with_weight="true"
       only_selected="false"
       uniform="false" /></defs><g
     inkscape:label="Layer 1"
     inkscape:groupmode="layer"
     id="layer1"
     transform="translate(-62.007191,-150.56444)"><path
       id="path1"
       style="opacity:1;fill:#ffffff;stroke-width:0.264583;stroke:none"
       d="M 120.22328 150.94736 C 120.14438 150.95219 120.06136 150.96424 119.97316 150.98354 C 119.62038 151.06071 119.19044 151.25897 118.71639 151.50702 C 118.24234 151.75507 117.72384 152.05272 117.1506 152.41652 C 116.57733 152.78033 115.94929 153.21026 115.39256 153.64022 C 114.83598 154.07005 114.35049 154.50006 114.10789 154.71509 C 113.86573 154.92973 113.86571 154.92987 113.54616 155.20808 C 113.22646 155.48645 112.58671 156.04317 112.09612 156.48966 C 111.60553 156.93615 111.26379 157.27221 110.97991 157.4927 C 110.69603 157.71319 110.47021 157.81793 110.31587 157.84823 C 110.16152 157.87857 110.07864 157.83442 110.06214 157.77382 C 110.0456 157.71318 110.09535 157.63638 110.19185 157.57848 C 110.28831 157.52058 110.43163 157.48199 110.48123 157.42139 C 110.53086 157.36075 110.48676 157.27812 110.38202 157.23122 C 110.27729 157.18462 110.1121 157.17361 109.89161 157.18161 C 109.67112 157.18991 109.39551 157.2173 109.15573 157.2338 C 108.91595 157.2503 108.71201 157.25566 108.50254 157.29426 C 108.29307 157.33284 108.07777 157.40451 107.87106 157.55885 C 107.66434 157.71316 107.46626 157.9502 107.27058 158.18723 C 107.07489 158.42425 106.88197 158.66128 106.72487 158.8983 C 106.5678 159.13533 106.44651 159.3727 106.40241 159.55459 C 106.35831 159.73648 106.39122 159.86309 106.49595 159.97058 C 106.60068 160.07808 106.77707 160.16644 106.9507 160.19124 C 107.12433 160.21604 107.29538 160.17687 107.43594 160.17987 C 107.57651 160.18263 107.68637 160.22703 107.73877 160.29873 C 107.79087 160.37039 107.78563 160.46924 107.74703 160.55194 C 107.70845 160.63462 107.63662 160.70078 107.43543 160.87441 C 107.23423 161.04801 106.90368 161.32933 106.55641 161.54155 C 106.20914 161.75377 105.84501 161.89708 105.49498 162.07898 C 105.14496 162.26089 104.80872 162.4812 104.51106 162.73476 C 104.21341 162.98832 103.95468 163.27529 103.74521 163.54814 C 103.53575 163.821 103.37586 164.08007 103.31526 164.31709 C 103.25462 164.55412 103.29299 164.76891 103.38399 164.92325 C 103.47494 165.0776 103.61825 165.17116 103.80567 165.20696 C 103.99308 165.24286 104.22459 165.22086 104.44233 165.15476 C 104.66006 165.08863 104.86399 164.97873 105.15339 164.76926 C 105.44278 164.5598 105.81777 164.25111 106.20914 163.90109 C 106.60051 163.55106 107.0084 163.15937 107.42457 162.75698 C 107.84074 162.35459 108.26518 161.94153 108.6152 161.60253 C 108.96523 161.26353 109.24048 160.9986 109.48853 160.7726 C 109.73658 160.5466 109.95723 160.35953 110.15567 160.2548 C 110.35411 160.15008 110.5305 160.12804 110.83367 160.11424 C 111.13684 160.10052 111.56678 160.09429 111.94988 160.10029 C 112.33298 160.10579 112.66921 160.1222 112.99168 160.1282 C 113.31414 160.1338 113.62297 160.12806 113.78284 160.18866 C 113.94264 160.24931 113.95358 160.37624 113.87638 160.54988 C 113.79922 160.72351 113.63402 160.94365 113.49345 161.16689 C 113.35289 161.39014 113.23697 161.61631 113.1157 161.88365 C 112.99443 162.151 112.86746 162.45966 112.81236 162.82622 C 112.75724 163.19278 112.77413 163.61704 112.88161 163.93675 C 112.98907 164.25646 113.18753 164.47176 113.36943 164.5765 C 113.55133 164.6813 113.71634 164.67556 113.99472 164.61216 C 114.27309 164.54877 114.66461 164.42785 115.17449 164.16878 C 115.68436 163.9097 116.31257 163.51249 116.78111 163.18176 C 117.24965 162.85102 117.55832 162.58644 117.75676 162.3632 C 117.9552 162.13995 118.04361 161.9584 118.08491 161.78753 C 118.12628 161.61665 118.12077 161.45647 118.06837 161.35448 C 118.01601 161.25246 117.91677 161.20838 117.81205 161.19738 C 117.70733 161.18635 117.59725 161.20841 117.29684 161.37928 C 116.99642 161.55015 116.50602 161.86987 116.19458 162.02421 C 115.88313 162.17851 115.75067 162.16737 115.67627 162.10947 C 115.60191 162.0516 115.58531 161.94703 115.71761 161.6356 C 115.8499 161.32416 116.13104 160.80585 116.33772 160.4889 C 116.54443 160.17194 116.67656 160.05657 116.96043 159.97937 C 117.24431 159.9022 117.6801 159.86327 117.98052 159.79437 C 118.28094 159.72547 118.4463 159.62625 118.77427 159.29001 C 119.10224 158.95377 119.59282 158.38067 119.85741 158.02238 C 120.12197 157.66409 120.16022 157.52095 120.11062 157.39141 C 120.06101 157.26187 119.92319 157.14598 119.67241 157.11288 C 119.42161 157.07978 119.0578 157.12922 118.85385 157.09892 C 118.64985 157.0686 118.60593 156.95854 118.67763 156.78215 C 118.74929 156.60576 118.93687 156.36323 119.26209 155.88918 C 119.58731 155.41513 120.05016 154.70976 120.4305 154.07585 C 120.81085 153.44195 121.10832 152.87938 121.25164 152.47698 C 121.39494 152.07462 121.38428 151.83241 121.29608 151.61192 C 121.20788 151.39143 121.04218 151.19266 120.82169 151.07139 C 120.65632 150.98041 120.45995 150.93288 120.22328 150.94736 z M 72.852007 151.0533 C 72.483435 151.04793 72.091284 151.05248 71.698589 151.07294 C 70.9132 151.11386 70.125814 151.21929 69.141639 151.38299 C 68.157465 151.5467 66.97675 151.76852 66.386252 151.87961 C 65.795753 151.99069 65.795961 151.99105 65.54651 152.09045 C 65.297059 152.18983 64.797949 152.38867 64.299041 152.72193 C 63.800132 153.05519 63.300974 153.52282 62.922897 153.99834 C 62.544822 154.47386 62.287891 154.95694 62.178757 155.32332 C 62.069623 155.6897 62.108314 155.93914 62.207696 156.10674 C 62.307076 156.27433 62.467172 156.36034 62.93685 156.31551 C 63.406528 156.27069 64.185915 156.0952 64.91089 155.89641 C 65.635864 155.69763 66.306229 155.47538 66.614145 155.24736 C 66.922061 155.01934 66.867432 154.78577 67.311777 154.55386 C 67.756121 154.32195 68.699428 154.09204 69.477019 153.92444 C 70.254611 153.75684 70.866599 153.65126 71.59937 153.59475 C 72.332142 153.53823 73.185983 153.53035 73.733607 153.61025 C 74.281231 153.69015 74.522744 153.85816 74.676702 154.0433 C 74.83066 154.22844 74.896928 154.43112 74.813128 154.63964 C 74.729327 154.84817 74.495307 155.06218 73.719654 155.39154 C 72.944003 155.72089 71.626706 156.16534 70.901739 156.38166 C 70.17677 156.59797 70.043953 156.58648 70.036158 156.46175 C 70.028364 156.33702 70.145779 156.09921 70.385491 155.83027 C 70.625203 155.56132 70.987695 155.26096 71.186476 155.02515 C 71.385256 154.78934 71.419991 154.61814 71.248487 154.53629 C 71.076985 154.45444 70.698808 154.46235 70.190154 154.67478 C 69.681501 154.88721 69.042691 155.30384 68.467779 155.75792 C 67.892865 156.21201 67.381995 156.70317 66.614145 157.01107 C 65.846295 157.31899 64.82113 157.44366 64.244264 157.54696 C 63.667397 157.65026 63.538759 157.73226 63.468601 157.90766 C 63.398441 158.08306 63.386734 158.35197 63.493922 158.55465 C 63.60111 158.75733 63.827334 158.894 64.084584 158.96806 C 64.341833 159.04212 64.630207 159.05376 64.782215 159.13756 C 64.934224 159.22137 64.949853 159.37726 64.867998 159.52927 C 64.786144 159.68128 64.606681 159.82908 64.302658 160.11166 C 63.998635 160.39425 63.570273 160.81162 63.295484 161.13124 C 63.020697 161.45085 62.899564 161.67273 62.821612 161.89295 C 62.743658 162.11317 62.708839 162.33175 62.70689 162.57146 C 62.704941 162.81117 62.736231 163.07196 62.802491 163.29803 C 62.868752 163.52409 62.97015 163.71538 63.135804 163.93365 C 63.301459 164.15192 63.531125 164.39757 63.761089 164.58271 C 63.991054 164.76785 64.220975 164.8924 64.501612 164.9801 C 64.782251 165.0678 65.113817 165.11825 65.486048 165.15528 C 65.858281 165.19232 66.271003 165.21586 66.730934 165.21781 C 67.190863 165.21976 67.697689 165.20008 68.198544 165.13771 C 68.6994 165.07534 69.194721 164.97011 69.609828 164.83954 C 70.024933 164.70896 70.359918 164.55342 70.747743 164.38582 C 71.135566 164.21822 71.575841 164.03879 72.014332 163.81273 C 72.452824 163.58666 72.889601 163.31364 73.279371 163.04275 C 73.669142 162.77186 74.012257 162.50288 74.24417 162.15598 C 74.476083 161.80908 74.596857 161.38424 74.643629 161.0315 C 74.690401 160.67876 74.662805 160.39832 74.561463 160.14887 C 74.460123 159.89941 74.284922 159.68099 73.977003 159.46467 C 73.669084 159.24835 73.228653 159.03436 72.784311 158.8921 C 72.339968 158.74983 71.891718 158.67918 71.344089 158.6363 C 70.796459 158.59342 70.149558 158.57828 69.650652 158.55878 C 69.151747 158.53928 68.800732 158.51544 68.590252 158.4823 C 68.379771 158.44916 68.309533 158.40669 68.28226 158.31901 C 68.254988 158.23132 68.270655 158.09883 68.33497 158.01308 C 68.399286 157.92733 68.512495 157.88805 69.036736 157.83738 C 69.560978 157.78671 70.496293 157.72452 71.35184 157.60174 C 72.207388 157.47896 72.98309 157.29545 73.67883 157.08497 C 74.37457 156.8745 74.990221 156.63681 75.430661 156.36202 C 75.871101 156.08723 76.136497 155.77569 76.399594 155.4892 C 76.662691 155.20272 76.923556 154.94138 77.06777 154.53991 C 77.211986 154.13844 77.239201 153.59687 77.126165 153.12914 C 77.013128 152.66141 76.759841 152.26786 76.428533 151.96384 C 76.097225 151.65981 75.687996 151.44524 75.278732 151.31271 C 74.86947 151.18019 74.460183 151.12961 73.863832 151.09257 C 73.565655 151.07406 73.220579 151.05866 72.852007 151.0533 z M 90.11762 151.71631 C 90.070723 151.72096 90.019779 151.73044 89.964658 151.74421 C 89.744172 151.79933 89.452374 151.92611 89.149204 152.12455 C 88.846032 152.32299 88.531842 152.59274 88.214894 152.87386 C 87.897944 153.15498 87.577897 153.44713 87.260947 153.78336 C 86.943995 154.1196 86.630152 154.50029 86.329737 154.86134 C 86.029324 155.22237 85.742349 155.56396 85.408863 155.96359 C 85.075378 156.36322 84.695211 156.82056 84.505043 157.04932 C 84.314876 157.27807 84.314871 157.27807 84.232191 157.43792 C 84.149508 157.59778 83.984317 157.91748 83.799659 158.24821 C 83.615002 158.57894 83.410882 158.92086 83.25654 159.28742 C 83.102198 159.65398 82.997643 160.04516 82.939763 160.43102 C 82.924919 160.53007 82.913255 160.62886 82.904107 160.72764 C 82.376025 161.05447 81.822147 161.41027 81.377068 161.68779 C 80.439991 162.27209 79.987664 162.50393 79.521884 162.61693 C 79.056105 162.72993 78.57673 162.72422 78.245993 162.64432 C 77.915256 162.5644 77.733189 162.41023 77.678069 162.25313 C 77.622947 162.09603 77.694951 161.93619 77.838266 161.81492 C 77.981581 161.69366 78.196552 161.61062 78.491456 161.48935 C 78.786361 161.36808 79.161179 161.20824 79.558058 161.0098 C 79.954935 160.81136 80.373509 160.57433 80.786923 160.28219 C 81.200338 159.99004 81.608577 159.64278 81.897967 159.32308 C 82.187356 159.00337 82.358055 158.7114 82.446253 158.4606 C 82.534453 158.20979 82.539961 158.00034 82.504131 157.80741 C 82.468302 157.61448 82.391133 157.43793 82.256084 157.28083 C 82.121035 157.12373 81.927939 156.9861 81.655087 156.8979 C 81.382238 156.80975 81.029461 156.77115 80.687705 156.78215 C 80.345948 156.79317 80.015394 156.85381 79.635056 156.95578 C 79.254717 157.05776 78.824944 157.20107 78.441847 157.40227 C 78.058748 157.60346 77.722164 157.86235 77.554046 157.99189 C 77.385925 158.12142 77.386267 158.1216 77.069321 158.46887 C 76.752373 158.81613 76.118309 159.51048 75.732451 160.14163 C 75.346595 160.77278 75.208637 161.3407 75.214137 161.94979 C 75.219647 162.55889 75.368474 163.20916 75.660621 163.73004 C 75.952767 164.25095 76.388567 164.64231 76.829542 164.83799 C 77.270518 165.03366 77.716995 165.03365 78.152459 164.97855 C 78.587921 164.92343 79.012009 164.81319 79.414397 164.64782 C 79.816787 164.48246 80.197121 164.26197 80.555413 164.0029 C 80.913703 163.74383 81.250111 163.44652 81.941892 162.84844 C 82.219773 162.6082 82.557116 162.31517 82.897389 162.01335 C 82.915256 162.28444 82.947257 162.55546 83.011077 162.8071 C 83.10754 163.18744 83.272903 163.52334 83.507171 163.77139 C 83.741437 164.01944 84.044775 164.17924 84.381019 164.25094 C 84.717264 164.32264 85.086746 164.30606 85.502914 164.1848 C 85.919085 164.06353 86.382098 163.83753 86.751417 163.59775 C 87.120736 163.35797 87.39634 163.10475 88.049529 162.52598 C 88.33699 162.27127 88.69802 161.95131 89.055152 161.6263 C 89.050181 161.9411 89.063028 162.23538 89.107862 162.49911 C 89.174123 162.88889 89.306707 163.2162 89.509388 163.47735 C 89.71207 163.7385 89.984945 163.93354 90.327943 164.04269 C 90.670942 164.15175 91.083715 164.17536 91.40333 164.15586 C 91.722943 164.13638 91.949093 164.07401 92.946905 163.55951 C 93.558557 163.24413 94.448058 162.76165 95.256324 162.29861 C 95.258236 162.38454 95.261846 162.47001 95.26976 162.55389 C 95.308736 162.96705 95.425715 163.34876 95.628395 163.69956 C 95.831073 164.05035 96.119731 164.37006 96.458835 164.55325 C 96.797939 164.73642 97.187534 164.78302 97.588998 164.77132 C 97.990465 164.75963 98.403483 164.68955 98.941371 164.48297 C 99.479258 164.27639 100.14194 163.93364 100.71491 163.56726 C 101.28788 163.20087 101.77136 162.81102 102.14944 162.48361 C 102.52752 162.1562 102.80013 161.89088 102.92097 161.66092 C 103.04176 161.43096 103.01075 161.23618 102.89772 161.09196 C 102.7847 160.94777 102.58963 160.85424 102.37527 160.89714 C 102.16091 160.94002 101.92728 161.11955 101.5531 161.3612 C 101.17892 161.60286 100.6642 161.90685 100.12631 162.14461 C 99.588429 162.38238 99.027417 162.55351 98.614259 162.57301 C 98.201099 162.5925 97.935919 162.46004 97.768316 162.28465 C 97.600709 162.10927 97.530687 161.89105 97.608635 161.72345 C 97.686589 161.55585 97.91261 161.43885 98.212733 161.32192 C 98.512856 161.20499 98.886866 161.08806 99.342897 160.862 C 99.798927 160.63593 100.33696 160.30084 100.82808 159.92666 C 101.31919 159.55248 101.76356 159.13934 102.01302 158.73397 C 102.26249 158.32861 102.31674 157.93097 102.23884 157.59967 C 102.16089 157.26836 101.9506 157.00345 101.65438 156.84364 C 101.35815 156.68385 100.97608 156.62946 100.52784 156.66846 C 100.0796 156.70743 99.565231 156.8395 99.039039 157.06947 C 98.512848 157.29943 97.975243 157.62717 97.706304 157.79087 C 97.437365 157.95457 97.436958 157.95456 97.273255 158.11437 C 97.109554 158.27417 96.782258 158.59345 96.474338 158.95204 C 96.166418 159.31063 95.878294 159.70847 95.687306 160.09822 C 95.517926 160.44389 95.426779 160.78459 95.361744 161.14519 C 94.71 161.32458 94.010557 161.53959 93.496742 161.70795 C 92.580773 162.00807 92.260735 162.15641 92.015178 162.12911 C 91.769623 162.10183 91.598205 161.89883 91.496864 161.58702 C 91.39552 161.2752 91.364598 160.8544 91.543889 160.5075 C 91.723183 160.1606 92.113119 159.88799 92.56915 159.50601 C 93.025179 159.12404 93.54717 158.63265 94.088954 158.04409 C 94.630736 157.45554 95.19228 156.7698 95.644414 156.11501 C 96.09655 155.46019 96.439368 154.83647 96.638152 154.20504 C 96.836936 153.57363 96.89122 152.93407 96.87173 152.52091 C 96.852242 152.10775 96.758745 151.92101 96.634018 151.81966 C 96.50929 151.71826 96.353497 151.70244 96.201486 151.72974 C 96.049475 151.75702 95.90124 151.82728 95.628395 151.98709 C 95.355548 152.1469 94.958063 152.39651 94.607268 152.64597 C 94.256475 152.89542 93.95257 153.14462 93.578391 153.56167 C 93.20421 153.97873 92.759952 154.56344 92.327304 155.15589 C 91.894659 155.74835 91.47376 156.3487 91.263286 156.64882 C 91.052814 156.94894 91.052912 156.94881 90.924289 157.132 C 90.795667 157.31519 90.538427 157.68168 90.234409 158.12212 C 89.930388 158.56256 89.579544 159.07698 89.372962 159.60316 C 89.266934 159.87323 89.1997 160.14616 89.154371 160.415 C 89.0993 160.45076 89.039398 160.4889 88.989007 160.52197 C 88.54803 160.81136 88.316869 160.97155 88.032993 161.14519 C 87.749114 161.31882 87.412707 161.50606 87.08473 161.71828 C 86.756753 161.9305 86.43688 162.16753 86.177809 162.28052 C 85.918737 162.39352 85.720645 162.38246 85.527719 162.29706 C 85.334794 162.21162 85.147383 162.05194 85.031625 161.83972 C 84.915871 161.6275 84.871599 161.36275 84.893649 161.1147 C 84.915697 160.86665 85.004063 160.63514 85.254868 160.40363 C 85.505671 160.17211 85.919079 159.94044 86.288396 159.67861 C 86.657714 159.41678 86.98258 159.12465 87.451116 158.66989 C 87.919651 158.21514 88.531837 157.59778 88.983839 157.07412 C 89.435839 156.55046 89.727631 156.12087 89.981194 155.68816 C 90.234756 155.25545 90.449725 154.82 90.576507 154.43139 C 90.703284 154.04278 90.742218 153.70103 90.761508 153.34825 C 90.780798 152.99547 90.780629 152.6315 90.731019 152.35865 C 90.681408 152.08579 90.582189 151.90387 90.458168 151.80467 C 90.36515 151.73027 90.25831 151.70235 90.11762 151.71631 z M 118.11901 153.5963 C 118.2008 153.60586 118.14426 153.76081 117.94693 154.09187 C 117.59613 154.68042 116.80103 155.82624 116.33721 156.44987 C 115.87338 157.0735 115.7406 157.17507 115.28456 157.28031 C 114.82852 157.38555 114.04876 157.49431 113.62781 157.4865 C 113.20686 157.4785 113.14486 157.35399 113.47227 157.02658 C 113.79968 156.69917 114.51669 156.16922 114.87528 155.90417 C 115.23387 155.63913 115.23406 155.63906 115.71347 155.27268 C 116.19289 154.9063 117.15154 154.17345 117.67769 153.82264 C 117.90789 153.66916 118.0554 153.58886 118.11901 153.5963 z M 89.00761 154.12236 C 89.070909 154.1205 89.121521 154.14685 89.150754 154.19316 C 89.197524 154.26726 89.189547 154.39204 89.045334 154.68047 C 88.901116 154.96891 88.620553 155.42124 88.254168 155.92794 C 87.887781 156.43465 87.43542 156.99588 87.057342 157.44412 C 86.679262 157.89236 86.37542 158.22738 86.157138 158.43786 C 85.938855 158.64835 85.806311 158.73405 85.704969 158.71846 C 85.603627 158.70286 85.533611 158.58587 85.588181 158.41047 C 85.642751 158.23507 85.822029 158.00134 85.911675 157.88441 C 86.001325 157.76748 86.00123 157.76725 86.157138 157.55678 C 86.313046 157.3463 86.624884 156.92531 86.932801 156.50826 C 87.24072 156.0912 87.54475 155.6784 87.801999 155.34709 C 88.059247 155.01579 88.269973 154.76608 88.445371 154.5673 C 88.620767 154.36851 88.760692 154.22037 88.88152 154.15802 C 88.92683 154.13462 88.969631 154.12348 89.00761 154.12236 z M 95.164857 154.12753 C 95.194942 154.12607 95.216623 154.13784 95.235137 154.1544 C 95.309197 154.2207 95.332101 154.3687 95.090443 154.80914 C 94.848781 155.24959 94.342145 155.9821 93.796465 156.68758 C 93.250787 157.39307 92.666492 158.07119 92.311801 158.39859 C 91.957112 158.72599 91.832183 158.7026 91.797104 158.58566 C 91.762024 158.46872 91.816776 158.25848 91.902524 158.08698 C 91.988274 157.91548 92.105025 157.78272 92.16349 157.71646 C 92.22195 157.65016 92.222201 157.65026 92.670436 157.06172 C 93.118668 156.47317 94.015023 155.29645 94.52562 154.7001 C 94.908566 154.25285 95.074602 154.13192 95.164857 154.12753 z M 125.29325 154.34612 C 125.20663 154.34478 125.11962 154.35181 125.0359 154.36524 C 124.81266 154.40106 124.61406 154.48358 124.41837 154.6076 C 124.22268 154.73163 124.03011 154.89699 123.93364 154.97967 C 123.83718 155.06236 123.83684 155.06236 123.79825 155.15331 C 123.75967 155.24426 123.68284 155.42598 123.63599 155.59411 C 123.58913 155.76223 123.57242 155.91674 123.6055 156.06281 C 123.63857 156.20888 123.72143 156.34651 123.87577 156.43747 C 124.0301 156.52842 124.25611 156.57251 124.46281 156.58629 C 124.66951 156.60008 124.85693 156.58388 125.04159 156.49844 C 125.22624 156.41301 125.40797 156.25832 125.58987 156.05713 C 125.77178 155.85594 125.95367 155.60823 126.05289 155.39877 C 126.15211 155.18931 126.16848 155.01808 126.10509 154.84997 C 126.0417 154.68185 125.89873 154.51649 125.70304 154.42829 C 125.58074 154.37316 125.43762 154.34836 125.29325 154.34612 z M 128.41864 156.44263 C 128.27046 156.4385 128.09308 156.44987 127.92978 156.49534 C 127.71205 156.55598 127.5193 156.67759 127.29881 156.83744 C 127.07833 156.9973 126.82994 157.19539 126.60945 157.41312 C 126.38896 157.63085 126.19604 157.86804 126.05548 158.08853 C 125.91492 158.30901 125.82707 158.51296 125.78573 158.70865 C 125.74438 158.90433 125.74973 159.09191 125.83792 159.2435 C 125.92611 159.39509 126.09716 159.51049 126.17433 159.61247 C 126.25151 159.71444 126.23463 159.80298 126.20431 159.86361 C 126.17399 159.92425 126.13025 159.95732 126.01724 160.06205 C 125.90423 160.16679 125.72216 160.343 125.50719 160.52766 C 125.29222 160.71231 125.044 160.90506 124.79044 161.07594 C 124.53688 161.24682 124.27795 161.39599 123.99411 161.54206 C 123.71023 161.68814 123.40155 161.83111 123.10114 161.96891 C 122.80072 162.10672 122.50876 162.23901 122.24692 162.27484 C 121.98512 162.31067 121.75359 162.25003 121.56893 162.14254 C 121.38427 162.03506 121.24613 161.88107 121.17722 161.70743 C 121.10832 161.53379 121.10867 161.3407 121.14725 161.17258 C 121.18583 161.00446 121.263 160.86132 121.41183 160.73178 C 121.56067 160.60224 121.78114 160.48614 122.05676 160.29046 C 122.33237 160.09478 122.66292 159.81952 122.91924 159.56596 C 123.17555 159.3124 123.35762 159.08054 123.55331 158.82698 C 123.74896 158.57346 123.95845 158.29782 124.0742 158.0415 C 124.18996 157.78518 124.21184 157.54851 124.13466 157.37488 C 124.05752 157.20124 123.88111 157.091 123.67991 157.03588 C 123.47872 156.98076 123.25255 156.98042 123.0045 157.04105 C 122.75646 157.10168 122.48653 157.22329 122.15029 157.42449 C 121.81405 157.62568 121.41149 157.90663 121.2103 158.04719 C 121.0091 158.18775 121.0091 158.18775 120.78035 158.44406 C 120.55159 158.70038 120.09426 159.21317 119.76904 159.66518 C 119.44382 160.11718 119.25072 160.50819 119.14324 160.95192 C 119.03576 161.39565 119.0137 161.89208 119.1019 162.32755 C 119.1901 162.76301 119.38853 163.13766 119.60626 163.46288 C 119.82399 163.7881 120.06136 164.06387 120.34523 164.22097 C 120.62911 164.37807 120.95966 164.41665 121.23252 164.41941 C 121.50537 164.42217 121.72034 164.38892 121.99319 164.2897 C 122.26605 164.19048 122.5966 164.02495 122.99623 163.76312 C 123.39586 163.50129 123.86439 163.14317 124.35222 162.75181 C 124.84005 162.36045 125.34754 161.93619 125.8436 161.47592 C 126.3397 161.01565 126.82442 160.51957 127.21303 160.11993 C 127.60164 159.72029 127.89395 159.41696 128.2109 159.24608 C 128.52785 159.0752 128.8696 159.03645 129.0956 159.05023 C 129.3216 159.06401 129.43168 159.1305 129.46199 159.23523 C 129.4923 159.33996 129.44287 159.48293 129.28577 159.67034 C 129.12867 159.85776 128.86409 160.08944 128.62431 160.42017 C 128.38453 160.7509 128.16974 161.18067 128.01815 161.59684 C 127.86656 162.01301 127.77837 162.41574 127.83625 162.7823 C 127.89412 163.14886 128.0979 163.47959 128.33493 163.6918 C 128.57195 163.90402 128.84187 163.99756 129.1726 163.99204 C 129.50333 163.98653 129.89486 163.88163 130.75752 163.41585 C 131.34767 163.0972 132.14971 162.61294 132.82974 162.17872 C 132.85351 162.54002 132.92462 162.86026 133.08141 163.17711 C 133.2685 163.55519 133.57668 163.92931 133.92942 164.14759 C 134.28216 164.36587 134.67971 164.42788 135.12211 164.43388 C 135.5645 164.43973 136.05161 164.38924 136.56026 164.2158 C 137.06891 164.04235 137.59892 163.74633 138.10952 163.40138 C 138.62012 163.05644 139.11113 162.66236 139.46189 162.3291 C 139.81269 161.99585 140.02335 161.72342 140.09545 161.47592 C 140.16756 161.22841 140.10119 161.00593 139.97452 160.93383 C 139.84787 160.86171 139.66054 160.93961 139.44226 161.06044 C 139.22398 161.18127 138.9747 161.34531 138.67848 161.52656 C 138.38225 161.7078 138.03919 161.90638 137.70593 162.06813 C 137.37268 162.22989 137.04908 162.35495 136.69049 162.42315 C 136.3319 162.49165 135.93835 162.50317 135.66161 162.43297 C 135.38487 162.36282 135.22524 162.21089 135.13554 162.05108 C 135.04594 161.89128 135.02617 161.72376 135.09627 161.57565 C 135.16642 161.42754 135.32657 161.29855 135.65593 161.13485 C 135.98528 160.97115 136.48415 160.77233 136.96747 160.54626 C 137.45079 160.32019 137.91834 160.06709 138.3276 159.7923 C 138.73686 159.51751 139.08747 159.22118 139.34666 158.87039 C 139.60586 158.5196 139.77387 158.11412 139.84017 157.83738 C 139.90645 157.56065 139.8713 157.41285 139.7797 157.25499 C 139.68811 157.09713 139.53978 156.92914 139.35854 156.79662 C 139.17729 156.66409 138.96283 156.567 138.70949 156.5124 C 138.45615 156.4578 138.16382 156.44577 137.88318 156.48087 C 137.60254 156.51594 137.33369 156.5978 137.06669 156.71083 C 136.79969 156.82387 136.5345 156.96846 136.17786 157.19453 C 135.82122 157.4206 135.3731 157.72839 135.14898 157.88234 C 134.92487 158.0363 134.92493 158.03627 134.7242 158.23116 C 134.52347 158.42604 134.12199 158.8154 133.78679 159.22076 C 133.45159 159.62612 133.18281 160.04724 133.02301 160.51887 C 132.95285 160.72596 132.90452 160.94275 132.87212 161.15914 C 132.289 161.34527 131.63908 161.5614 131.19315 161.70174 C 130.50136 161.91948 130.3193 161.94686 130.21181 161.88623 C 130.10433 161.82559 130.07125 161.67712 130.07952 161.50072 C 130.08779 161.32433 130.13757 161.12022 130.29191 160.85012 C 130.44625 160.58002 130.70532 160.24378 130.95337 159.94888 C 131.20142 159.65398 131.43809 159.40025 131.65307 159.18252 C 131.86805 158.96478 132.06097 158.78323 132.1657 158.59857 C 132.27043 158.41395 132.2873 158.22651 132.28456 157.99499 C 132.28181 157.76348 132.25957 157.4877 132.19619 157.26171 C 132.13281 157.03571 132.0279 156.85932 131.91765 156.77388 C 131.80741 156.68844 131.69184 156.69413 131.58434 156.72996 C 131.47684 156.76578 131.37745 156.83177 131.21485 156.86483 C 131.05226 156.89789 130.82659 156.89791 130.57303 156.90617 C 130.31947 156.91444 130.03801 156.93115 129.76791 156.94493 C 129.49781 156.95871 129.23892 156.96939 129.0956 156.90049 C 128.95228 156.83159 128.92456 156.68293 128.86668 156.59198 C 128.80879 156.50103 128.72095 156.46796 128.55558 156.45142 C 128.51424 156.44729 128.46804 156.44401 128.41864 156.44263 z M 137.7483 158.0875 C 137.80417 158.08778 137.83683 158.10954 137.85217 158.14537 C 137.88727 158.22727 137.83282 158.38312 137.59896 158.60529 C 137.3651 158.82746 136.95178 159.1161 136.5737 159.39284 C 136.19563 159.66958 135.85277 159.93454 135.6306 160.04758 C 135.40842 160.16061 135.30715 160.12154 135.29936 160.01244 C 135.29136 159.90331 135.37724 159.72383 135.54482 159.54064 C 135.71242 159.35744 135.96167 159.17065 136.08639 159.0771 C 136.21112 158.9836 136.21121 158.98337 136.43727 158.8275 C 136.66334 158.6716 137.1157 158.3599 137.40414 158.2079 C 137.56638 158.1224 137.67648 158.08712 137.7483 158.0875 z M 100.31493 158.10196 C 100.36891 158.1023 100.39813 158.12505 100.41518 158.16088 C 100.45418 158.24278 100.43031 158.39097 100.18471 158.64043 C 99.939141 158.88988 99.471833 159.24098 99.058676 159.5489 C 98.645521 159.85682 98.286792 160.12171 98.076307 160.21915 C 97.865821 160.31655 97.803306 160.24637 97.783819 160.14887 C 97.764329 160.05147 97.78796 159.92688 97.924378 159.75148 C 98.060801 159.57608 98.310217 159.34981 98.434942 159.23678 C 98.559667 159.12375 98.559776 159.12358 98.828716 158.94429 C 99.097657 158.76499 99.635655 158.40679 99.955262 158.23529 C 100.13504 158.13883 100.24553 158.10153 100.31493 158.10196 z M 80.271192 158.35466 C 80.34914 158.35564 80.404348 158.37705 80.437074 158.41667 C 80.489434 158.48007 80.483933 158.58996 80.395733 158.7195 C 80.307533 158.84904 80.136493 158.99803 79.885686 159.20474 C 79.63488 159.41145 79.304501 159.67603 79.028891 159.91581 C 78.753282 160.15559 78.532459 160.3704 78.356064 160.4889 C 78.179669 160.60741 78.047726 160.62946 77.970558 160.58812 C 77.893388 160.54672 77.871334 160.44222 77.896144 160.32095 C 77.920954 160.19968 77.992605 160.06171 78.028435 159.99281 C 78.064265 159.92391 78.064269 159.92412 78.185532 159.80005 C 78.3068 159.67603 78.548989 159.42781 78.786012 159.20732 C 79.023035 158.98684 79.25489 158.79408 79.483644 158.65077 C 79.712396 158.50745 79.938226 158.41392 80.106345 158.37533 C 80.16939 158.36086 80.224425 158.35407 80.271192 158.35466 z M 67.797535 159.60627 C 68.215719 159.61381 68.825375 159.68481 69.364365 159.74631 C 69.980352 159.81661 70.504 159.87446 70.885719 159.95715 C 71.267436 160.03985 71.507387 160.14713 71.635544 160.30286 C 71.7637 160.45858 71.780242 160.66287 71.70169 160.81859 C 71.62314 160.97431 71.449341 161.08181 71.038681 161.28162 C 70.628021 161.48144 69.980699 161.77322 69.400538 161.96064 C 68.820378 162.14805 68.307586 162.23091 67.82389 162.20197 C 67.340197 162.17307 66.885276 162.03248 66.565569 161.83404 C 66.245862 161.6356 66.061376 161.37911 66.091696 161.12555 C 66.122016 160.87199 66.367305 160.62136 66.554717 160.40777 C 66.74213 160.19417 66.871495 160.01779 66.991383 159.87447 C 67.111271 159.73116 67.221852 159.62108 67.631137 159.6073 C 67.682298 159.60557 67.737795 159.60519 67.797535 159.60627 z " /></g></svg>
