<?xml version="1.0" encoding="UTF-8" standalone="no"?>
<!-- Created with Inkscape (http://www.inkscape.org/) -->

<svg
   width="123.8133mm"
   height="123.8133mm"
   viewBox="0 0 123.8133 123.8133"
   version="1.1"
   id="svg1"
   inkscape:version="1.3 (0e150ed6c4, 2023-07-21)"
   sodipodi:docname="belleaire-app-icon-4.svg"
   inkscape:export-filename="belleaire-app-icon-3.png"
   inkscape:export-xdpi="420.14227"
   inkscape:export-ydpi="420.14227"
   xmlns:inkscape="http://www.inkscape.org/namespaces/inkscape"
   xmlns:sodipodi="http://sodipodi.sourceforge.net/DTD/sodipodi-0.dtd"
   xmlns:xlink="http://www.w3.org/1999/xlink"
   xmlns="http://www.w3.org/2000/svg"
   xmlns:svg="http://www.w3.org/2000/svg">
  <sodipodi:namedview
     id="namedview1"
     pagecolor="#ffffff"
     bordercolor="#000000"
     borderopacity="0.25"
     inkscape:showpageshadow="2"
     inkscape:pageopacity="0.0"
     inkscape:pagecheckerboard="0"
     inkscape:deskcolor="#d1d1d1"
     inkscape:document-units="mm"
     inkscape:zoom="1.0449705"
     inkscape:cx="-268.9071"
     inkscape:cy="156.94222"
     inkscape:window-width="2558"
     inkscape:window-height="1360"
     inkscape:window-x="-7"
     inkscape:window-y="0"
     inkscape:window-maximized="0"
     inkscape:current-layer="layer1" />
  <defs
     id="defs1">
    <inkscape:path-effect
       effect="bspline"
       id="path-effect7"
       is_visible="true"
       lpeversion="1.3"
       weight="33.333333"
       steps="2"
       helper_size="0"
       apply_no_weight="true"
       apply_with_weight="true"
       only_selected="false"
       uniform="false" />
    <inkscape:path-effect
       effect="bspline"
       id="path-effect6"
       is_visible="true"
       lpeversion="1.3"
       weight="33.333333"
       steps="2"
       helper_size="0"
       apply_no_weight="true"
       apply_with_weight="true"
       only_selected="false"
       uniform="false" />
    <inkscape:path-effect
       effect="bspline"
       id="path-effect5"
       is_visible="true"
       lpeversion="1.3"
       weight="33.333333"
       steps="2"
       helper_size="0"
       apply_no_weight="true"
       apply_with_weight="true"
       only_selected="false"
       uniform="false" />
    <inkscape:path-effect
       effect="bspline"
       id="path-effect3"
       is_visible="true"
       lpeversion="1.3"
       weight="33.333333"
       steps="2"
       helper_size="0"
       apply_no_weight="true"
       apply_with_weight="true"
       only_selected="false"
       uniform="false" />
    <linearGradient
       id="linearGradient2"
       inkscape:collect="always">
      <stop
         style="stop-color:#1e1e1e;stop-opacity:1;"
         offset="0"
         id="stop2" />
      <stop
         style="stop-color:#6e6e6e;stop-opacity:1;"
         offset="1"
         id="stop3" />
    </linearGradient>
    <linearGradient
       inkscape:collect="always"
       xlink:href="#linearGradient2"
       id="linearGradient3"
       x1="174.70589"
       y1="194.70845"
       x2="50.892582"
       y2="70.895142"
       gradientUnits="userSpaceOnUse" />
  </defs>
  <g
     inkscape:label="Layer 1"
     inkscape:groupmode="layer"
     id="layer1"
     transform="translate(-50.892582,-70.895142)">
    <rect
       style="display:none;fill:url(#linearGradient3);stroke-width:0.264583"
       id="rect1"
       width="123.8133"
       height="123.8133"
       x="50.892582"
       y="70.895142" />
    <path
       id="rect2"
       style="display:none;fill:#808080;stroke-width:0.2151"
       d="m 125.07832,100.19411 a 20.944572,20.944572 0 0 0 -12.985,6.05515 20.944572,20.944572 0 0 0 -16.635402,-6.05473 20.944572,20.944572 0 0 0 -12.984583,6.05473 20.944572,20.944572 0 0 0 0,29.61999 l 29.619985,29.61999 29.61999,-29.61999 h 4.2e-4 a 20.944572,20.944572 0 0 0 0,-29.61999 20.944572,20.944572 0 0 0 -16.63541,-6.05515 z" />
    <path
       id="path3"
       style="display:none;fill:#ffffff;stroke-width:0.264583"
       d="m 97.187431,100.47783 c -0.555178,-2.8e-4 -1.107348,0.0219 -1.65468,0.0662 -2.189325,0.17685 -4.303705,0.7029 -6.467822,1.71204 -2.164117,1.00913 -4.377722,2.50118 -6.049243,3.98735 -1.671522,1.48617 -2.80093,2.96648 -3.733106,4.64623 -0.932175,1.67975 -1.667147,3.55907 -2.124935,5.46065 -0.457787,1.90158 -0.638116,3.82559 -0.568957,5.65702 0.06916,1.83143 0.387823,3.57 1.020093,5.40018 0.63227,1.83019 1.577972,3.75173 3.361552,6.09782 1.783579,2.3461 4.405081,5.11655 7.543725,7.88169 3.138644,2.76515 6.794032,5.52485 10.810193,9.54102 4.016159,4.01617 8.392839,9.28883 12.769249,14.56139 4.3764,-5.27257 8.75256,-10.54522 12.76873,-14.56139 4.01615,-4.01617 7.67206,-6.77587 10.81071,-9.54102 3.13864,-2.76514 5.75963,-5.5356 7.54321,-7.88169 1.78358,-2.34609 2.72928,-4.26763 3.36155,-6.09782 0.63227,-1.83018 0.95141,-3.56875 1.02061,-5.40018 0.0692,-1.83143 -0.11169,-3.75543 -0.56948,-5.65702 -0.45779,-1.90158 -1.19276,-3.7809 -2.12493,-5.46065 -0.93218,-1.67975 -2.06158,-3.16005 -3.73311,-4.64623 -1.67152,-1.48617 -3.88512,-2.97821 -6.04924,-3.98735 -2.16412,-1.00913 -4.27851,-1.53519 -6.46782,-1.71204 -2.18933,-0.17686 -4.45314,-0.004 -6.69572,0.56999 -2.24258,0.57433 -4.46349,1.55055 -6.10402,3.07113 -1.64042,1.52048 -2.701,3.58534 -3.76101,5.6503 -1.05997,-2.06489 -2.11961,-4.12988 -3.75998,-5.6503 -1.64053,-1.52058 -3.86143,-2.49681 -6.10402,-3.07113 -1.68193,-0.43074 -3.376017,-0.63528 -5.041549,-0.63614 z" />
    <path
       id="path5"
       style="display:none;fill:#ffffff;stroke-width:0.264583"
       d="m 98.443685,100.8592 c -3.136443,-0.0292 -6.765777,0.68623 -9.383924,1.58905 -2.618147,0.90283 -4.224961,1.99263 -5.685957,3.4308 -1.460997,1.43818 -2.775909,3.22468 -3.882451,5.9707 -1.106542,2.74602 -2.004574,6.45179 -1.636076,10.44019 0.368498,3.9884 2.003093,8.25912 4.572331,12.15791 2.569238,3.89879 6.072996,7.42521 9.227861,10.29653 3.154864,2.87132 5.960726,5.08739 9.308991,8.43566 3.34827,3.34828 7.23877,7.82878 11.12904,12.30933 3.89026,-4.48056 7.78025,-8.96106 11.12852,-12.30933 3.34826,-3.34827 6.15464,-5.56434 9.30951,-8.43566 3.15486,-2.87132 6.6581,-6.39774 9.22734,-10.29653 2.56924,-3.89879 4.20435,-8.16952 4.57285,-12.15791 0.36849,-3.98841 -0.52953,-7.69416 -1.63608,-10.44019 -1.10654,-2.74602 -2.42197,-4.53252 -3.88297,-5.9707 -1.46099,-1.43818 -3.06781,-2.52798 -5.68595,-3.4308 -2.61815,-0.90282 -6.24749,-1.61825 -9.38393,-1.58905 -3.13644,0.0292 -5.7798,0.80289 -7.97264,2.0836 -2.19272,1.28063 -3.93506,3.06808 -5.67717,4.85552 -1.74202,-1.78735 -3.48404,-3.57495 -5.67666,-4.85552 -2.19283,-1.2807 -4.83619,-2.05437 -7.972635,-2.0836 z" />
    <path
       id="path6"
       style="fill:#ffffff;stroke-width:0.264583"
       d="M 96.483598 100.24891 C 95.778643 100.26476 95.077243 100.317 94.383467 100.40652 C 92.995915 100.58556 91.638439 100.91377 90.422469 101.33153 C 89.206498 101.74929 88.132289 102.25656 87.169954 102.78622 C 86.20762 103.31588 85.357435 103.86791 84.492082 104.53185 C 83.626728 105.19578 82.746106 105.97129 81.970272 106.78442 C 81.194438 107.59756 80.523105 108.44802 79.94869 109.35068 C 79.374274 110.25333 78.897246 111.20847 78.412349 112.32 C 77.927453 113.43154 77.434882 114.69969 77.084265 116.03502 C 76.733648 117.37036 76.524859 118.77248 76.465181 120.20479 C 76.405503 121.63711 76.49498 123.09963 76.68894 124.42004 C 76.8829 125.74045 77.181205 126.91876 77.598962 128.06013 C 78.016719 129.2015 78.553918 130.30543 79.188013 131.40204 C 79.822107 132.49865 80.553076 133.58794 81.433353 134.63234 C 82.313631 135.67673 83.342912 136.67642 86.573091 139.30234 C 89.803271 141.92825 95.234289 146.18027 99.854451 150.81585 C 104.47461 155.45143 108.28404 160.47044 112.0935 165.48937 C 115.90295 160.47044 119.71238 155.45142 124.33254 150.81585 C 128.95271 146.18026 134.38321 141.92825 137.61339 139.30234 C 140.84356 136.67642 141.87285 135.67673 142.75312 134.63234 C 143.6334 133.58794 144.36437 132.49865 144.99847 131.40204 C 145.63256 130.30543 146.16977 129.2015 146.58752 128.06013 C 147.00528 126.91876 147.30358 125.74045 147.49754 124.42004 C 147.69154 123.09963 147.78151 121.63711 147.72181 120.20479 C 147.66213 118.77249 147.45283 117.37036 147.10221 116.03502 C 146.7516 114.69969 146.25954 113.43154 145.77465 112.32 C 145.28975 111.20847 144.81221 110.25333 144.23779 109.35068 C 143.66337 108.44803 142.99205 107.59755 142.21621 106.78442 C 141.44038 105.97129 140.56027 105.19578 139.69491 104.53185 C 138.82956 103.86791 137.97886 103.31588 137.01652 102.78622 C 136.0542 102.25657 134.97998 101.74929 133.76401 101.33153 C 132.54803 100.91377 131.19056 100.58555 129.80301 100.40652 C 128.41546 100.22742 126.99792 100.19746 125.58053 100.30937 C 124.16314 100.42127 122.74598 100.67508 121.50016 100.9884 C 120.25435 101.30172 119.18027 101.67436 117.98668 102.24878 C 116.79308 102.82319 115.47989 103.59909 114.26391 104.76284 C 113.41431 105.57595 112.69013 106.49491 112.09298 107.28982 C 111.49586 106.49496 110.77208 105.57586 109.92257 104.76284 C 108.7066 103.59909 107.39391 102.8232 106.20032 102.24878 C 105.00672 101.67437 103.93213 101.30171 102.68632 100.9884 C 101.44051 100.67508 100.02334 100.42127 98.605949 100.30937 C 97.897253 100.25342 97.188553 100.23306 96.483598 100.24891 z " />
  </g>
</svg>
